<svg width="123" height="40" fill="none" xmlns="http://www.w3.org/2000/svg"><path d="M31.794 6.464S31.898.42 52.737 1.045L74.1 15.465s-24.696 2.044-24.8 8.818c0 0-11.984-4.064-26.468 7.294L9.39 12.403S22.832.524 31.794 6.463z" stroke="#8835CA" stroke-width=".208"/><path d="M9.423 12.348s-1.563 1.539-1.25 2.957l14.692 21.426v-5.106m.304 5.106s19.78-11.679 23.179-9.802l3.09-2.607h4.224s12.465-4.692 20.81-3.962l-.412-5.07" stroke="#8835CA" stroke-width=".208"/><path d="M8.051 15.29s-1.493-.091-.92 1.524l14.745 22.09S44.8 26.4 48.55 28.59c0 0 3.127.785 7.086-3.15 0 0 5.652-2.998 14.132-3.415l5.06-.45-.73-6.097M31.794 6.464l17.644 17.858" stroke="#8835CA" stroke-width=".208"/><path d="M8.445 19.86c-.02 0-.035-.005-.045-.015v-.03h.015c.15-.12.305-.27.465-.45.17-.17.255-.36.255-.57 0-.23-.1-.415-.3-.555a1.989 1.989 0 00-.705-.315c-.28-.07-.56-.115-.84-.135a6.646 6.646 0 00-.675-.045c-.29 0-.62.015-.99.045a14.545 14.545 0 00-2.1.27c-.14.03-.25.065-.33.105-.08.05-.205.075-.375.075-.01 0-.04.005-.09.015a.347.347 0 00-.075.045c-.03-.01-.11-.015-.24-.015a.76.76 0 01-.21-.015v.015l.015.015v.015c.01-.01.025-.015.045-.015.01.01.01.02 0 .03h.03l-.015.015h-.015c-.01.01-.025.015-.045.015a.115.115 0 00-.045.015c-.03.08-.07.16-.12.24-.04.08-.085.13-.135.15-.01.03-.035.05-.075.06a.44.44 0 01-.105.015c-.03 0-.07-.01-.12-.03-.05-.01-.075-.035-.075-.075v-.18c0-.03.005-.06.015-.09h-.105c-.15 0-.31-.025-.48-.075a.63.63 0 01-.39-.255 2.086 2.086 0 01-.135-.315c-.04-.14-.06-.25-.06-.33 0-.12.065-.26.195-.42.14-.17.295-.315.465-.435.18-.12.33-.18.45-.18.06-.06.16-.135.3-.225.15-.1.3-.185.45-.255.15-.08.265-.12.345-.12h.045c.01-.01.02-.015.03-.015.11-.2.225-.4.345-.6.12-.2.245-.395.375-.585.38-.55.78-1.09 1.2-1.62.42-.54.88-1.04 1.38-1.5.51-.46 1.065-.85 1.665-1.17.13-.08.26-.15.39-.21.14-.06.29-.095.45-.105l.195-.03.21-.03c.14.04.285.095.435.165.16.06.24.18.24.36 0 .28-.095.56-.285.84-.18.28-.355.52-.525.72-.33.4-.69.79-1.08 1.17-.38.38-.79.71-1.23.99-.19.12-.38.245-.57.375-.19.12-.385.235-.585.345-.28.15-.565.29-.855.42-.28.12-.565.24-.855.36-.14.06-.275.15-.405.27-.13.12-.25.235-.36.345-.08.08-.175.22-.285.42-.1.2-.185.405-.255.615-.07.21-.105.375-.105.495v.06l.345-.03.33-.03c.18-.02.355-.045.525-.075.18-.03.355-.05.525-.06l.015-.015.255-.015a.95.95 0 01.33-.09c.16-.02.3-.03.42-.03.09 0 .15.005.18.015.15-.02.295-.03.435-.03l.42-.03c.06-.02.135-.035.225-.045.09-.01.165-.015.225-.015.03 0 .06.005.09.015h.09c.02 0 .095-.005.225-.015.14-.02.22-.035.24-.045l.63.03c.22 0 .43.03.63.09.2.05.375.155.525.315.12.13.22.32.3.57.08.25.12.465.12.645a.93.93 0 01-.03.225c-.01.08-.04.15-.09.21-.04.05-.09.08-.15.09l-.18.06c-.05.03-.105.065-.165.105a.245.245 0 01-.18.075zm-5.295-4.2c.04.02.075.02.105 0 .81-.34 1.59-.73 2.34-1.17.75-.45 1.435-.975 2.055-1.575.63-.61 1.15-1.31 1.56-2.1a2.2 2.2 0 01.075-.165.38.38 0 00.06-.18c0-.07-.035-.115-.105-.135a.668.668 0 00-.165-.06c-.15.04-.3.085-.45.135a3.193 3.193 0 00-1.065.525l-.6.42-.63.45c-.48.34-.93.755-1.35 1.245-.42.48-.8.96-1.14 1.44l-.195.315c-.1.16-.2.325-.3.495-.09.16-.155.28-.195.36zm-1.71 2.31h.3c.08-.17.155-.355.225-.555.08-.2.155-.385.225-.555.12-.27.245-.535.375-.795-.11.06-.275.16-.495.3-.22.13-.45.28-.69.45-.23.16-.43.315-.6.465-.16.15-.24.27-.24.36 0 .12.06.205.18.255.12.04.25.065.39.075h.33zm9.76-3.705c-.04 0-.09-.025-.15-.075-.06-.05-.09-.095-.09-.135 0-.02.034-.065.104-.135.07-.08.145-.155.225-.225.09-.08.145-.13.165-.15.08.02.12.065.12.135 0 .04-.025.11-.075.21-.04.09-.09.175-.15.255-.05.08-.1.12-.15.12zM9.61 18.15c-.03 0-.06-.01-.09-.03a.188.188 0 00-.076-.045 1.04 1.04 0 01-.15-.15c-.03-.04-.045-.11-.045-.21 0-.32.075-.625.225-.915.15-.3.29-.585.42-.855.02-.02.025-.04.015-.06a.247.247 0 01-.015-.075c0-.09.035-.19.105-.3.08-.12.17-.235.27-.345.1-.11.18-.19.24-.24.06 0 .15.01.27.03.12.01.18.055.18.135 0 .01-.05.07-.15.18-.1.11-.16.18-.18.21l-.465.72c-.17.27-.32.55-.45.84a2.02 2.02 0 00-.195.825c.12-.02.245-.09.375-.21.14-.13.245-.24.315-.33h.015v.015c0 .04-.02.08-.06.12a.727.727 0 00-.09.105l-.195.345c-.08.16-.17.24-.27.24zm1.669-.015c-.16 0-.28-.055-.36-.165a.69.69 0 01-.12-.39c0-.22.055-.48.165-.78.11-.3.21-.555.3-.765.03-.06.065-.12.105-.18a.42.42 0 00.06-.21c.04-.03.085-.105.135-.225.05-.12.08-.185.09-.195v-.015a.189.189 0 00-.105.075.352.352 0 01-.12.075h-.015l-.015-.015v-.015c0-.03.01-.045.03-.045.02-.04.05-.07.09-.09.04-.03.07-.065.09-.105.07-.08.13-.16.18-.24.06-.08.13-.155.21-.225.06.01.155.04.285.09.13.04.195.1.195.18 0 .06-.045.15-.135.27-.08.12-.17.24-.27.36-.09.12-.155.21-.195.27-.1.15-.175.275-.225.375-.05.1-.095.2-.135.3-.04.1-.095.23-.165.39-.05.11-.1.225-.15.345a.966.966 0 00-.075.375v.135c0 .05.005.105.015.165.01.05.035.075.075.075.04 0 .085-.015.135-.045.06-.03.105-.06.135-.09.2-.17.385-.355.555-.555l.525-.585.66-.69c.23-.24.445-.485.645-.735.04-.04.09-.11.15-.21.06-.1.12-.15.18-.15h.03c.05 0 .115.025.195.075.09.04.135.09.135.15 0 .13-.03.22-.09.27a.66.66 0 00-.135.24c-.01.05-.03.1-.06.15-.02.04-.045.085-.075.135-.09.15-.165.365-.225.645-.05.28-.075.505-.075.675v.135c0 .07.005.145.015.225.01.07.035.115.075.135.09-.01.165-.065.225-.165.07-.1.13-.195.18-.285.06-.1.115-.15.165-.15v.06a.22.22 0 01-.045.135c-.02.04-.04.085-.06.135-.04.11-.085.22-.135.33-.04.1-.14.15-.3.15-.2 0-.335-.09-.405-.27a1.529 1.529 0 01-.105-.525c0-.19.02-.4.06-.63.05-.24.11-.445.18-.615l.03-.06c.01-.02.01-.04 0-.06h-.03c-.06 0-.125.045-.195.135-.07.08-.135.165-.195.255a.4.4 0 01-.18.15v.015l-.12.105c-.1.18-.225.35-.375.51a286.776 286.776 0 00-.87.93c-.16.17-.34.255-.54.255zm6.04 1.215c-.1 0-.22-.06-.36-.18-.13-.11-.21-.21-.24-.3a.975.975 0 01-.075-.24 2.2 2.2 0 01-.015-.24c0-.07.005-.135.015-.195l.03-.195c.05-.14.11-.325.18-.555.07-.24.15-.42.24-.54v-.03h-.03v-.015l.075-.075c.03-.04.05-.08.06-.12l-.06.015-.015-.03h-.015c-.06 0-.09.035-.09.105-.05.02-.115.085-.195.195-.07.11-.115.165-.135.165l-.03.015.015.045h-.015l-.09.045a.188.188 0 00-.045.075c-.01.02-.04.03-.09.03v.015c-.08.15-.23.31-.45.48-.21.17-.41.255-.6.255-.16 0-.28-.04-.36-.12-.08-.08-.155-.12-.225-.12l-.015-.015c-.03-.1-.07-.16-.12-.18-.05-.03-.075-.12-.075-.27v-.12l.03-.075v-.015c0-.03.01-.08.03-.15.03-.08.065-.12.105-.12 0-.11.04-.235.12-.375.08-.15.17-.29.27-.42.11-.14.2-.25.27-.33.17-.2.355-.36.555-.48l.63-.375v.015a.557.557 0 01.285-.105c.02-.01.05-.015.09-.015.08 0 .18.035.3.105.13.07.195.15.195.24v.105c0 .04-.01.065-.03.075l-.105.105c-.02.02-.05.07-.09.15-.04.08-.08.12-.12.12h-.015l.015-.12c.04-.05.06-.115.06-.195a.498.498 0 00-.045-.195c-.02-.08-.07-.12-.15-.12-.07 0-.16.035-.27.105-.11.06-.195.11-.255.15l-.12.09c-.04.02-.085.045-.135.075-.16.13-.34.315-.54.555-.19.23-.36.475-.51.735-.14.26-.21.505-.21.735 0 .08.02.16.06.24.04.08.11.12.21.12.12 0 .275-.075.465-.225.2-.16.41-.36.63-.6a25.18 25.18 0 001.245-1.47l.405-.495.33-.45c.11-.16.215-.315.315-.465.02-.03.05-.07.09-.12.05-.06.075-.105.075-.135.01 0 .05-.05.12-.15.07-.1.155-.215.255-.345a16.839 16.839 0 00.42-.57l.135-.165c.04-.06.08-.125.12-.195l.03-.045.015.015c.01-.03.05-.1.12-.21.08-.11.135-.17.165-.18l-.015-.03c.1-.06.2-.165.3-.315.1-.15.23-.26.39-.33.05.01.095.02.135.03.05.01.095.025.135.045v.03c.02.02.035.045.045.075.02.02.03.045.03.075 0 .06-.035.13-.105.21-.06.07-.11.13-.15.18-.1.13-.225.26-.375.39-.15.12-.29.235-.42.345a1.08 1.08 0 00-.135.165.633.633 0 01-.12.165.98.98 0 01-.09.105.596.596 0 00-.09.075l-.15.21c-.05.07-.105.135-.165.195-.13.14-.25.29-.36.45-.11.15-.22.31-.33.48-.06.09-.115.175-.165.255a.94.94 0 01-.18.24.72.72 0 00-.09.195c-.03.08-.07.125-.12.135-.01.07-.06.18-.15.33-.09.15-.155.265-.195.345-.02.04-.045.11-.075.21-.02.1-.055.16-.105.18v.015a.2.2 0 01-.045.12.4.4 0 00-.075.105c-.07.15-.145.345-.225.585-.07.23-.135.465-.195.705-.05.24-.075.44-.075.6 0 .1.01.2.03.3.03.11.09.19.18.24l.015-.015.015.015h.015c.08-.04.165-.075.255-.105.05-.02.09-.055.12-.105.03-.04.08-.06.15-.06-.01.04-.02.075-.03.105 0 .04-.01.075-.03.105-.01.05-.065.1-.165.15a.576.576 0 01-.225.075zm6.003-.555c-.05 0-.1-.005-.15-.015a2.93 2.93 0 00-.135-.03l-.045.03a.922.922 0 01-.315-.54c-.04-.23-.06-.44-.06-.63 0-.2.005-.4.015-.6.02-.21.035-.41.045-.6.01-.14.03-.28.06-.42.04-.14.06-.275.06-.405 0-.06-.005-.1-.015-.12l-.03-.03-.03.015c-.08.04-.155.14-.225.3-.06.15-.11.265-.15.345-.03.06-.1.18-.21.36-.1.17-.205.335-.315.495-.11.16-.19.26-.24.3a.44.44 0 01-.27.105.578.578 0 01-.285-.075c-.08-.05-.12-.135-.12-.255 0-.04.025-.14.075-.3.06-.16.13-.34.21-.54.08-.2.145-.39.195-.57.06-.19.09-.335.09-.435 0-.06-.015-.09-.045-.09-.04 0-.125.055-.255.165-.12.1-.24.21-.36.33a2.22 2.22 0 00-.225.225l-.105.18a2.42 2.42 0 00-.465.51l-.03.06c-.02.03-.07.095-.15.195-.07.09-.145.18-.225.27a.66.66 0 01-.165.15.789.789 0 01-.12.195c-.04.05-.09.105-.15.165-.06.06-.135.18-.225.36-.08.18-.135.31-.165.39-.01.02-.05.04-.12.06a.476.476 0 01-.135.03c-.04 0-.09-.02-.15-.06-.05-.04-.075-.08-.075-.12 0-.03.035-.13.105-.3.08-.17.17-.365.27-.585.1-.22.19-.415.27-.585.09-.17.145-.265.165-.285-.01-.02-.005-.04.015-.06l.045-.045c0-.05.03-.125.09-.225a12.202 12.202 0 00.42-.84c.12-.24.22-.48.3-.72.09-.24.135-.45.135-.63-.06 0-.12.01-.18.03-.06.02-.12.03-.18.03-.04-.03-.06-.055-.06-.075 0-.06.07-.09.21-.09.06.02.145.03.255.03.12-.01.23-.005.33.015s.15.085.15.195c0 .05-.045.165-.135.345-.08.18-.18.39-.3.63l-.345.66c-.1.21-.17.365-.21.465a.261.261 0 01-.075.135c-.04.03-.06.08-.06.15-.03.01-.045.04-.045.09v.045c.01.02.015.04.015.06h.015c.02-.04.08-.12.18-.24.1-.12.205-.24.315-.36.11-.13.18-.215.21-.255h.03c.15-.17.3-.33.45-.48.16-.16.335-.3.525-.42.04-.02.065-.045.075-.075l.03.015c.02 0 .04-.005.06-.015.03-.01.06-.015.09-.015.11 0 .215.045.315.135.1.09.15.195.15.315 0 .15-.05.305-.15.465-.09.15-.17.295-.24.435-.04.08-.075.165-.105.255-.03.08-.065.16-.105.24a.957.957 0 01-.09.195.566.566 0 00-.06.195v.03c.01 0 .015.005.015.015a.36.36 0 00.195-.12c.05-.07.1-.135.15-.195l.3-.39.3-.39.195-.225c.05-.08.11-.17.18-.27.07-.1.14-.17.21-.21a.643.643 0 01.225-.045c.08 0 .17.01.27.03.11.02.165.08.165.18 0 .15-.035.295-.105.435-.07.13-.125.265-.165.405-.02.07-.05.2-.09.39-.04.18-.075.365-.105.555-.03.18-.045.31-.045.39 0 .06.01.1.03.12-.01.01-.015.035-.015.075 0 .04.005.085.015.135.02.04.035.085.045.135 0 .1.01.225.03.375.03.16.12.24.27.24v-.015l.015.015v-.015a.54.54 0 00.18-.15c.08-.07.15-.15.21-.24.07-.09.105-.155.105-.195h.015v.015c0 .01-.01.055-.03.135-.01.08-.025.16-.045.24-.01.09-.02.14-.03.15a.442.442 0 01-.36.165zm-.82 3.75c-.2 0-.34-.065-.42-.195a.841.841 0 01-.12-.45c0-.2.046-.405.136-.615.08-.21.17-.4.27-.57.09-.14.18-.285.27-.435.09-.14.185-.275.285-.405.25-.33.56-.675.93-1.035.37-.35.725-.64 1.065-.87.24-.17.49-.315.75-.435.27-.13.535-.26.795-.39v.015l.015-.015c.09-.04.195-.085.315-.135a.82.82 0 01.33-.09c.05-.02.08-.04.09-.06.05-.06.09-.15.12-.27.04-.13.075-.265.105-.405.04-.14.075-.245.105-.315a.354.354 0 00.075-.165c.01-.02.01-.045 0-.075 0-.04.005-.075.015-.105.02-.11.04-.21.06-.3.02-.09.035-.2.045-.33-.08.02-.175.1-.285.24-.1.13-.19.23-.27.3-.1.1-.205.195-.315.285-.1.09-.205.19-.315.3-.1.09-.23.22-.39.39s-.335.345-.525.525c-.19.17-.375.315-.555.435-.18.12-.335.18-.465.18a.716.716 0 01-.375-.135.797.797 0 01-.27-.285l.015-.015a.526.526 0 01-.015-.15c0-.17.04-.36.12-.57.09-.21.195-.415.315-.615s.23-.365.33-.495l.105-.105a.522.522 0 00.105-.105c.08-.1.165-.2.255-.3a.47.47 0 01.36-.165c.05 0 .145.035.285.105.14.07.21.13.21.18 0 .02-.01.03-.03.03a.247.247 0 01-.075-.015.133.133 0 00-.06-.015c-.1 0-.24.095-.42.285-.18.19-.365.42-.555.69-.19.27-.35.53-.48.78-.12.24-.18.415-.18.525 0 .06.03.09.09.09a.59.59 0 00.315-.105c.12-.07.215-.135.285-.195h.03c.44-.32.86-.655 1.26-1.005.41-.36.815-.725 1.215-1.095.07-.06.13-.125.18-.195.06-.07.125-.13.195-.18.08.01.175.035.285.075.11.04.165.115.165.225 0 .05-.01.1-.03.15-.01.04-.02.085-.03.135-.02.1-.045.2-.075.3-.02.1-.045.2-.075.3-.01.06-.03.12-.06.18a.83.83 0 00-.075.165l-.03.195a.97.97 0 01-.15.39c-.05.1-.075.17-.075.21 0 .04.025.06.075.06a.92.92 0 01.12-.015c.2 0 .35.045.45.135.1.09.155.135.165.135a.167.167 0 01-.075.015.167.167 0 00-.075.015.096.096 0 00-.075-.075.493.493 0 00-.12-.015c-.06 0-.15.02-.27.06-.11.03-.215.08-.315.15-.09.06-.135.13-.135.21-.04.02-.11.105-.21.255-.1.15-.16.25-.18.3a.167.167 0 00-.015.075c0 .03-.005.055-.015.075-.01.04-.045.08-.105.12-.06.04-.09.12-.09.24a.62.62 0 00-.195.165c-.07.1-.105.175-.105.225l-.045.03v.015l.015.03a.734.734 0 00-.075.045.102.102 0 00-.03.075c-.04.02-.09.08-.15.18-.05.1-.1.155-.15.165v.045l-.105.075v.045c-.04.03-.11.1-.21.21-.09.11-.145.17-.165.18v.06c-.03.03-.045.05-.045.06a.265.265 0 00-.12.075c-.03.05-.06.075-.09.075l.015.045-.06.06a.322.322 0 00-.06.075h-.03a.54.54 0 01-.15.18l-.18.18-.12.15a1.08 1.08 0 01-.135.165c-.07.07-.15.135-.24.195s-.175.13-.255.21l-.165.165a.633.633 0 01-.165.12l-.15.12c-.16.11-.34.23-.54.36-.2.14-.4.21-.6.21zm-.134-.12c.05 0 .095-.01.135-.03l.12-.03.015-.015v.015c.04-.02.13-.075.27-.165.14-.08.275-.165.405-.255.13-.08.195-.13.195-.15.12-.08.23-.175.33-.285.11-.1.215-.2.315-.3.11-.1.22-.205.33-.315.11-.1.21-.205.3-.315.06-.08.115-.16.165-.24.06-.08.12-.155.18-.225.08-.11.165-.22.255-.33.1-.1.19-.2.27-.3.09-.12.175-.245.255-.375l.24-.36.36-.525c.02-.04.035-.08.045-.12a.98.98 0 00.06-.105c.03-.06.08-.14.15-.24.07-.11.135-.22.195-.33a.6.6 0 00.09-.24c0-.02-.005-.03-.015-.03-.03.02-.12.06-.27.12-.14.05-.28.105-.42.165-.13.05-.2.085-.21.105-.04.01-.145.075-.315.195a45.9 45.9 0 00-.525.345c-.17.12-.285.205-.345.255-.17.14-.345.29-.525.45l-.51.48a.774.774 0 00-.15.165 1.35 1.35 0 01-.135.195c-.03.03-.1.105-.21.225-.11.12-.17.2-.18.24-.04.02-.105.095-.195.225-.09.13-.18.28-.27.45-.1.17-.19.33-.27.48-.09.16-.15.27-.18.33v.045c-.04.04-.065.115-.075.225-.01.12-.015.205-.015.255 0 .04.005.1.015.18.01.09.05.135.12.135zm7.34-4.185c-.26 0-.455-.06-.585-.18a.853.853 0 01-.255-.465c-.04-.19-.06-.385-.06-.585 0-.16-.04-.245-.12-.255-.08-.02-.115-.055-.105-.105l.315-.24.045-.165c.04-.11.08-.225.12-.345.04-.12.065-.19.075-.21-.01-.03.015-.115.075-.255.07-.14.145-.295.225-.465.09-.18.175-.335.255-.465.08-.14.13-.215.15-.225v-.015h-.015c.05-.08.09-.16.12-.24.04-.08.095-.15.165-.21 0-.02.035-.08.105-.18.08-.11.13-.18.15-.21.26-.35.56-.73.9-1.14.35-.42.715-.74 1.095-.96.05-.02.095-.04.135-.06.04-.03.08-.05.12-.06h.03c.01-.01.02-.015.03-.015.12 0 .26.05.42.15.17.1.255.22.255.36 0 .1-.07.26-.21.48-.13.21-.295.45-.495.72a30.235 30.235 0 01-1.245 1.485c-.18.2-.31.34-.39.42a.98.98 0 01-.105.09c-.04.03-.08.065-.12.105-.08.08-.16.165-.24.255-.07.09-.15.175-.24.255l-.39.36a6.128 6.128 0 01-.54.48l-.15.15c-.05.06-.085.17-.105.33-.02.16-.03.28-.03.36 0 .09.01.21.03.36.03.14.08.265.15.375.07.11.165.165.285.165.06 0 .11-.01.15-.03.05-.02.1-.045.15-.075.29-.16.56-.34.81-.54.25-.21.485-.43.705-.66.08-.08.155-.16.225-.24.08-.09.16-.175.24-.255l.12-.12c.06-.06.11-.085.15-.075a.32.32 0 01-.12.195.774.774 0 00-.15.165c-.06.09-.115.18-.165.27-.05.08-.1.17-.15.27a.47.47 0 01-.09.12c-.04.04-.075.08-.105.12-.15.18-.315.345-.495.495a2.261 2.261 0 01-.855.465.765.765 0 01-.27.045zm-.3-2.25c.59-.55 1.165-1.12 1.725-1.71.56-.6 1.055-1.245 1.485-1.935.05-.08.115-.205.195-.375.09-.18.135-.31.135-.39 0-.06-.015-.095-.045-.105-.12.04-.225.095-.315.165l-.285.225a.58.58 0 01-.105.075c-.04.02-.07.04-.09.06-.07.08-.145.16-.225.24l-.24.24c-.11.12-.215.245-.315.375l-.3.39c-.23.29-.425.55-.585.78-.15.23-.325.505-.525.825-.04.06-.105.17-.195.33-.09.15-.175.305-.255.465-.07.15-.11.26-.12.33l.06.015zm2.9 1.995c-.14 0-.296-.075-.466-.225-.17-.16-.255-.315-.255-.465h-.015c.01-.04.02-.135.03-.285.01-.15.035-.23.075-.24v-.03a.92.92 0 00.075-.12c.04-.07.08-.145.12-.225.05-.08.08-.13.09-.15.03-.05.11-.145.24-.285.13-.15.265-.29.405-.42s.23-.195.27-.195c.06-.09.17-.19.33-.3.17-.11.34-.215.51-.315a42 42 0 00.375-.21v-.015l.015.015h.015c.04-.04.115-.08.225-.12.12-.05.2-.08.24-.09a.83.83 0 01.21-.06l.21-.03c.05.01.1.015.15.015.06 0 .115.005.165.015.1.02.21.075.33.165.12.08.18.18.18.3a.174.174 0 00-.03.045c-.01.02-.01.035 0 .045l-.06-.03a.362.362 0 00-.27-.195 1.422 1.422 0 00-.345-.045c-.27 0-.555.07-.855.21-.3.13-.595.305-.885.525-.29.22-.55.455-.78.705-.22.25-.385.49-.495.72l-.045.18c-.02.1-.05.195-.09.285a.73.73 0 00-.06.3c0 .08.01.14.03.18l.105.15.03-.015v.015l.03-.03.06.015c.07-.04.145-.07.225-.09.08-.03.145-.07.195-.12l.03-.03a.421.421 0 00.165-.105l.135-.135.45-.42c.15-.14.29-.285.42-.435.07-.08.16-.18.27-.3.11-.12.205-.205.285-.255l.015-.06a.49.49 0 00.225-.21c.08-.11.155-.215.225-.315.08-.11.155-.165.225-.165l.06-.015a.23.23 0 01.195.105c.05.06.075.125.075.195 0 .08-.025.17-.075.27-.05.1-.085.19-.105.27a4.527 4.527 0 00-.135 1.125c0 .13.02.24.06.33.05.09.12.185.21.285h.075c.14-.08.24-.165.3-.255s.135-.185.225-.285c.01 0 .02-.005.03-.015l.015-.015c.02 0 .03.01.03.03 0 .04-.01.08-.03.12-.01.03-.02.07-.03.12-.02.11-.05.215-.09.315-.03.09-.125.135-.285.135-.09 0-.19-.02-.3-.06a.726.726 0 01-.27-.165 1.183 1.183 0 01-.285-.555 4.556 4.556 0 01-.045-.645v-.48h-.03c-.04.06-.085.12-.135.18l-.15.18c-.04.04-.09.085-.15.135a.656.656 0 00-.135.15c-.02 0-.06.035-.12.105-.05.06-.075.105-.075.135-.07.01-.15.07-.24.18-.08.11-.135.165-.165.165a.585.585 0 01-.105.15l-.135.135a.282.282 0 00-.18.105c-.04.06-.08.115-.12.165-.09.04-.19.095-.3.165a.66.66 0 01-.315.09zm6.877.78c-.11-.04-.235-.12-.375-.24-.13-.11-.195-.23-.195-.36 0-.19.11-.375.33-.555.23-.18.51-.345.84-.495.33-.16.66-.295.99-.405.34-.12.625-.215.855-.285.23-.08.35-.125.36-.135.09-.02.175-.04.255-.06l.27-.06a1.088 1.088 0 00-.315-.285 7.116 7.116 0 00-.315-.225c-.1-.06-.2-.125-.3-.195a2.862 2.862 0 00-.285-.195c-.28-.17-.525-.32-.735-.45-.21-.13-.4-.345-.57-.645a2.19 2.19 0 01-.195-.405c-.05-.17-.075-.32-.075-.45 0-.28.115-.535.345-.765.23-.24.5-.44.81-.6.31-.17.575-.29.795-.36.09-.03.175-.06.255-.09a.77.77 0 01.27-.075c.08-.02.16-.055.24-.105.09-.05.175-.08.255-.09.14-.04.275-.065.405-.075.13-.02.26-.045.39-.075a.65.65 0 01.24-.015.5.5 0 00.225-.045l.03-.015H44c.04 0 .08.005.12.015h.12c.04 0 .08-.005.12-.015.05-.02.095-.03.135-.03.05 0 .1.01.15.03.06.01.115.015.165.015s.115.02.195.06c.09.03.155.055.195.075.12.05.22.14.3.27.09.13.135.26.135.39s-.04.23-.12.3c-.08.06-.165.13-.255.21-.09.08-.17.17-.24.27-.07.1-.14.205-.21.315h-.045c.02-.13.07-.255.15-.375.09-.12.175-.24.255-.36a.69.69 0 00.12-.39c0-.19-.08-.3-.24-.33a2.217 2.217 0 00-.435-.045c-.14 0-.28.01-.42.03l-.405.06c-.39.04-.76.115-1.11.225-.34.11-.685.25-1.035.42-.13.07-.27.15-.42.24a3.536 3.536 0 01-.585.27c-.12.14-.255.295-.405.465a.823.823 0 00-.225.555c0 .22.1.425.3.615.2.19.45.38.75.57.3.19.595.39.885.6.29.2.525.425.705.675l.36-.06c.13-.02.255-.03.375-.03.29 0 .52.085.69.255.17.17.255.4.255.69 0 .23-.05.38-.15.45-.09.06-.22.135-.39.225-.07.04-.14.09-.21.15a.424.424 0 01-.225.105v-.015h-.015v-.015h.015c.1-.08.215-.18.345-.3.13-.12.245-.25.345-.39.11-.14.165-.27.165-.39 0-.14-.06-.235-.18-.285a1.053 1.053 0 00-.405-.105c-.15-.02-.27-.03-.36-.03-.07 0-.145.005-.225.015-.07 0-.145.005-.225.015.01.01.015.02.015.03 0 .01.005.02.015.03.03.07.045.145.045.225a.88.88 0 01-.105.39c-.14.28-.345.51-.615.69-.26.18-.545.32-.855.42-.31.1-.615.175-.915.225a.493.493 0 01-.12.015h-.12c-.23 0-.46-.03-.69-.09l.03-.045c.05.01.095.015.135.015.05.01.095.015.135.015.05 0 .11-.01.18-.03.07-.01.13-.02.18-.03.08-.05.23-.11.45-.18.22-.07.425-.145.615-.225.2-.08.31-.155.33-.225 0-.03.005-.045.015-.045.12-.07.265-.165.435-.285a2.5 2.5 0 00.45-.405c.14-.15.21-.3.21-.45v-.03c-.6.08-1.155.215-1.665.405-.19.07-.435.175-.735.315-.29.14-.56.305-.81.495-.25.18-.415.37-.495.57 0 .01-.005.02-.015.03v.06c0 .07.025.15.075.24.05.1.115.15.195.15v.06zm6.73.345a.6.6 0 01-.24-.09c-.11-.06-.185-.11-.225-.15a.71.71 0 01-.15-.285c-.02-.11-.03-.215-.03-.315 0-.33.075-.705.225-1.125.15-.42.305-.775.465-1.065.02-.04.06-.115.12-.225.07-.11.135-.22.195-.33.06-.11.09-.17.09-.18l-.27.09-.09-.015v.015c-.1.07-.23.12-.39.15s-.295.07-.405.12l-.45.225h-.03c-.04 0-.075-.02-.105-.06a.346.346 0 01-.03-.12c0-.03.055-.065.165-.105.11-.05.24-.1.39-.15l.435-.135c.14-.04.23-.065.27-.075.13-.03.25-.065.36-.105h.015v-.015c.07 0 .145-.02.225-.06.19-.28.375-.555.555-.825.19-.28.405-.535.645-.765l.33-.315c.08-.07.14-.13.18-.18.04-.05.11-.1.21-.15.07.01.165.045.285.105.13.06.195.13.195.21 0 .03-.05.08-.15.15-.09.07-.185.14-.285.21-.1.06-.17.105-.21.135l-.105.03a3.3 3.3 0 00-.33.315c-.1.11-.205.22-.315.33a.597.597 0 00-.15.195.8.8 0 01-.15.21v.06a.549.549 0 00-.105.09c-.04.04-.06.07-.06.09.17.01.35.025.54.045.19.02.35.1.48.24a4.713 4.713 0 00-.315-.075.945.945 0 00-.3-.045c-.2 0-.385.03-.555.09l-.09.135c-.06.09-.125.18-.195.27a.652.652 0 00-.09.135c-.03.04-.09.14-.18.3-.09.15-.175.3-.255.45-.07.14-.11.215-.12.225 0 .05-.015.115-.045.195l-.075.195-.015.015v.015c0 .06-.015.125-.045.195l-.075.18c-.09.27-.135.55-.135.84 0 .08.01.18.03.3.03.12.09.205.18.255.02.01.065.02.135.03.08.01.12.03.12.06 0 .04-.025.06-.075.06zm2.115-3.825h-.015.015zm.362 3.06c-.16 0-.28-.04-.36-.12-.07-.07-.13-.105-.18-.105-.01-.05-.055-.105-.135-.165-.08-.06-.12-.2-.12-.42a1 1 0 01.135-.525c.09-.15.17-.31.24-.48.02-.05.03-.1.03-.15 0-.06.01-.11.03-.15.02-.07.05-.135.09-.195l.12-.18c.23-.39.5-.705.81-.945.31-.25.675-.46 1.095-.63h.015c.05-.02.13-.035.24-.045.11-.02.19-.03.24-.03.1 0 .19.02.27.06.08.04.15.06.21.06l-.03.03c.09.04.16.1.21.18.05.07.105.135.165.195l.06.06c.02.02.035.04.045.06.03.03.05.075.06.135a1.312 1.312 0 01-.18.87c-.13.21-.275.415-.435.615l-.21.3c-.06.1-.135.195-.225.285-.02.02-.075.07-.165.15l-.24.24a.842.842 0 00-.12.135.623.623 0 00-.195.135c-.06.06-.125.115-.195.165-.18.13-.38.24-.6.33-.22.09-.445.135-.675.135zm-.075-.18l.21-.06c.14-.04.23-.065.27-.075.05-.02.145-.07.285-.15.15-.09.29-.18.42-.27.13-.1.195-.17.195-.21.07-.02.165-.095.285-.225.13-.14.255-.285.375-.435.12-.16.2-.27.24-.33.02-.02.055-.07.105-.15.05-.09.08-.135.09-.135.01-.04.025-.08.045-.12.03-.05.045-.09.045-.12.03-.02.06-.085.09-.195.03-.12.055-.18.075-.18l-.015-.015a.115.115 0 00.015-.045c.01-.02.02-.035.03-.045 0-.06.01-.115.03-.165.02-.06.03-.12.03-.18.02-.04.03-.09.03-.15v-.15l.015-.015v-.015c0-.09-.03-.17-.09-.24-.05-.07-.13-.105-.24-.105-.28 0-.535.07-.765.21a6.628 6.628 0 00-.855.6c-.07.05-.135.11-.195.18-.02.01-.05.03-.09.06-.04.03-.06.06-.06.09a.516.516 0 00.255-.105.597.597 0 01.375-.105c.05 0 .145.045.285.135.15.09.225.16.225.21v.03a.588.588 0 01-.135-.06c-.02-.02-.07-.03-.15-.03-.2 0-.405.08-.615.24-.2.15-.365.295-.495.435-.06.05-.12.105-.18.165a1.35 1.35 0 00-.135.195.604.604 0 00-.045.24c.02-.01.04.005.06.045.02.03.03.055.03.075h-.045c-.05 0-.09-.01-.12-.03-.02-.03-.04-.045-.06-.045-.04.03-.085.11-.135.24s-.085.195-.105.195c-.01.04-.02.085-.03.135v.12c0 .16.03.29.09.39.06.11.18.165.36.165zm3.204 3.57a.245.245 0 01-.06-.015c-.03 0-.05-.01-.06-.03a.335.335 0 01-.3-.165c-.07-.11-.12-.235-.15-.375a1.76 1.76 0 01-.045-.36c0-.08.01-.17.03-.27.02-.09.035-.175.045-.255.04-.05.07-.115.09-.195.01-.08.02-.15.03-.21a4.14 4.14 0 01.3-.72c.02-.06.04-.1.06-.12v-.045a.53.53 0 00.105-.195c.02-.07.045-.14.075-.21.05-.11.105-.22.165-.33l.18-.3c.08-.13.16-.255.24-.375.08-.13.155-.26.225-.39l.135-.165c.05-.07.085-.13.105-.18.09-.18.215-.395.375-.645s.305-.46.435-.63l-.015-.03.045-.06c.02-.08.065-.185.135-.315s.105-.23.105-.3v-.015h-.015c-.09 0-.225.035-.405.105-.17.06-.35.14-.54.24-.19.1-.35.205-.48.315-.13.11-.195.21-.195.3 0 .06.02.11.06.15.05.03.095.06.135.09v.015c-.01 0-.015.005-.015.015a6.49 6.49 0 01-.39-.105c-.17-.06-.255-.15-.255-.27 0-.09.075-.19.225-.3.15-.12.33-.235.54-.345.21-.11.41-.2.6-.27.19-.08.33-.125.42-.135.03-.01.09-.02.18-.03.1-.02.195-.035.285-.045l.135-.03c.08-.1.165-.195.255-.285.09-.09.17-.185.24-.285h.015l.015-.03.075.015.015-.015c.08 0 .165.045.255.135.1.09.15.175.15.255 0 .07-.045.12-.135.15-.09.03-.135.08-.135.15 0 .04.065.09.195.15s.26.155.39.285c.13.12.195.305.195.555 0 .07-.01.14-.03.21-.01.06-.01.13 0 .21l-.03.03c.01 0 .015.005.015.015h.09a.44.44 0 01.105-.015c.05 0 .135.02.255.06.12.03.2.06.24.09.03.02.05.05.06.09.02.03.045.055.075.075v.015l-.045.015c-.06-.02-.115-.04-.165-.06a.243.243 0 00-.15-.045c-.04 0-.085.01-.135.03a.586.586 0 00-.12.045c-.14.04-.275.095-.405.165-.12.07-.195.19-.225.36-.04.03-.07.05-.09.06-.01.01-.02.045-.03.105-.07.07-.13.145-.18.225-.04.07-.09.14-.15.21-.06.07-.125.135-.195.195-.06.06-.12.125-.18.195L54.19 18l-.09.12a.576.576 0 01-.195.135c-.1.06-.205.11-.315.15a.576.576 0 01-.225.075c-.09 0-.185-.05-.285-.15a.401.401 0 01-.135-.285c0-.22.1-.435.3-.645.2-.22.43-.415.69-.585.27-.18.49-.31.66-.39l.3-.12c.16-.06.25-.1.27-.12.06-.06.1-.155.12-.285.03-.13.045-.24.045-.33a.95.95 0 00-.12-.48c-.08-.14-.23-.21-.45-.21-.15 0-.285.05-.405.15-.05.04-.125.12-.225.24-.09.11-.18.23-.27.36-.09.12-.16.215-.21.285-.3.43-.585.87-.855 1.32-.27.44-.51.9-.72 1.38a.447.447 0 00-.045.06c-.01.03-.025.05-.045.06 0 .01-.025.075-.075.195l-.15.39c-.05.13-.08.21-.09.24a.235.235 0 01-.045.06l-.03.06a.633.633 0 01-.06.195c-.02.06-.04.125-.06.195-.04.17-.085.35-.135.54-.05.2-.075.39-.075.57 0 .05.005.105.015.165.01.07.025.13.045.18.02.04.065.075.135.105s.105.055.105.075c0 .02-.015.03-.045.03zm1.815-3.72c.04 0 .08-.02.12-.06.23-.14.415-.255.555-.345.14-.1.27-.21.39-.33.13-.13.275-.315.435-.555.02-.02.04-.045.06-.075.02-.03.03-.06.03-.09 0-.02-.01-.04-.03-.06-.13.1-.27.19-.42.27-.14.08-.275.175-.405.285-.09.07-.175.155-.255.255-.08.09-.17.17-.27.24 0 .03-.04.105-.12.225-.08.12-.13.19-.15.21.02.02.04.03.06.03zm5.017-3.75c-.04 0-.09-.025-.15-.075-.06-.05-.09-.095-.09-.135 0-.02.035-.065.105-.135.07-.08.144-.155.224-.225l.166-.15c.08.02.12.065.12.135 0 .04-.026.11-.075.21-.04.09-.09.175-.15.255-.05.08-.1.12-.15.12zm-1.59 3.885c-.03 0-.06-.01-.09-.03a.188.188 0 00-.076-.045 1.04 1.04 0 01-.15-.15c-.03-.04-.044-.11-.044-.21 0-.32.075-.625.224-.915.15-.3.29-.585.42-.855.02-.02.026-.04.016-.06a.247.247 0 01-.016-.075c0-.09.036-.19.106-.3.08-.12.17-.235.27-.345.1-.11.18-.19.24-.24.06 0 .15.01.27.03.12.01.18.055.18.135 0 .01-.05.07-.15.18-.1.11-.16.18-.18.21l-.465.72c-.17.27-.32.55-.45.84a2.02 2.02 0 00-.196.825c.12-.02.245-.09.376-.21.14-.13.244-.24.314-.33h.015v.015c0 .04-.02.08-.06.12a.727.727 0 00-.09.105l-.194.345c-.08.16-.17.24-.27.24zm1.684-.36c-.06 0-.13-.03-.21-.09-.07-.06-.105-.12-.105-.18 0-.19.05-.42.15-.69.1-.27.22-.55.36-.84.15-.29.295-.565.435-.825.15-.26.275-.475.375-.645.05-.09.09-.185.12-.285.04-.1.095-.19.165-.27.08.01.17.035.27.075.11.04.165.115.165.225 0 .08-.05.17-.15.27a6.064 6.064 0 00-.81 1.035c-.17.29-.325.585-.465.885-.03.06-.055.12-.075.18l-.06.15c-.02.05-.045.1-.075.15a.22.22 0 00-.045.135c0 .02.005.045.015.075.01.03.03.045.06.045.08-.08.205-.215.375-.405.17-.2.355-.405.555-.615.2-.22.38-.41.54-.57.17-.16.285-.255.345-.285.02-.01.04-.015.06-.015.02-.01.04-.015.06-.015.16 0 .285.075.375.225.09.14.135.28.135.42 0 .16-.015.315-.045.465-.03.15-.045.3-.045.45 0 .12.025.275.075.465.05.19.155.285.315.285.04-.02.085-.04.135-.06.05-.02.095-.03.135-.03.03 0 .045.02.045.06 0 .05-.03.09-.09.12a.269.269 0 01-.135.045c-.15 0-.305-.065-.465-.195-.16-.14-.26-.28-.3-.42-.04-.15-.07-.3-.09-.45a7.46 7.46 0 01-.015-.465c0-.07.005-.17.015-.3.02-.14.03-.23.03-.27-.06 0-.14.045-.24.135-.1.08-.195.17-.285.27-.09.09-.155.16-.195.21-.02.02-.05.04-.09.06a.596.596 0 00-.09.075c-.04.05-.085.11-.135.18-.05.06-.1.115-.15.165-.02.02-.065.055-.135.105-.06.05-.1.09-.12.12-.05.1-.115.195-.195.285-.08.09-.155.185-.225.285-.02.03-.04.07-.06.12a.226.226 0 01-.075.09c-.03.04-.075.06-.135.06zm4.395.375c-.17 0-.36-.045-.57-.135a.902.902 0 01-.435-.375.81.81 0 01-.06-.33 1.607 1.607 0 01.165-.78c.06-.11.125-.245.195-.405.01-.02.045-.065.105-.135l.21-.21c.08-.08.13-.135.15-.165l.15-.195c.03-.05.065-.075.105-.075.05-.01.09-.025.12-.045.08-.14.19-.26.33-.36.06-.04.175-.1.345-.18.17-.08.285-.12.345-.12.05 0 .095.01.135.03.04.02.08.03.12.03l.03-.015c.02.07.065.12.135.15.08.03.12.1.12.21 0 .03-.02.085-.06.165-.04.08-.085.16-.135.24-.04.07-.075.105-.105.105a.796.796 0 01.045-.165c.02-.06.03-.12.03-.18a.29.29 0 00-.045-.15c-.03-.06-.075-.09-.135-.09-.12 0-.265.06-.435.18-.17.12-.33.26-.48.42-.15.15-.265.27-.345.36-.15.17-.3.345-.45.525-.14.18-.24.38-.3.6-.02.08-.04.155-.06.225-.01.07-.015.15-.015.24.02.03.03.065.03.105 0 .03.01.065.03.105.05.08.115.14.195.18a.72.72 0 00.255.045c.18 0 .345-.035.495-.105.15-.07.27-.105.36-.105.07-.05.14-.09.21-.12l.21-.12c.05 0 .115-.03.195-.09.09-.07.155-.115.195-.135.22-.13.43-.26.63-.39a7.54 7.54 0 00.795-.6c.1-.08.17-.125.21-.135-.01 0-.01-.005 0-.015.03.01.045.04.045.09 0 .1-.08.205-.24.315-.16.1-.275.175-.345.225-.03.03-.06.07-.09.12-.03.05-.07.075-.12.075l-.015.045c-.07.04-.165.1-.285.18-.11.08-.175.125-.195.135-.07.02-.13.05-.18.09-.05.03-.105.07-.165.12-.08.05-.16.11-.24.18a.347.347 0 01-.255.105c0 .01-.005.015-.015.015-.01.06-.05.1-.12.12a.552.552 0 00-.165.045c-.1.06-.2.1-.3.12-.09.02-.2.03-.33.03zm3.264.24a.563.563 0 01-.255-.06c-.08-.04-.12-.11-.12-.21 0-.19.035-.425.105-.705.08-.28.17-.56.27-.84.1-.29.185-.55.255-.78.08-.24.12-.41.12-.51v-.015h-.075a.717.717 0 01-.375-.12.401.401 0 01-.18-.33c0-.13.05-.245.15-.345.1-.1.195-.185.285-.255a.4.4 0 00.105-.075c.04-.04.08-.06.12-.06l.105-.045v.015c0 .01-.04.06-.12.15l-.15.15c-.04.06-.085.16-.135.3-.04.14-.06.245-.06.315 0 .06.02.095.06.105.04.01.08.015.12.015.04 0 .09-.02.15-.06.06-.04.1-.05.12-.03 0-.01.025-.065.075-.165.06-.1.095-.155.105-.165v-.06c.04-.09.08-.19.12-.3a.889.889 0 01.165-.285v-.015a33.396 33.396 0 01.51-1.065c.11-.22.22-.42.33-.6.11-.18.2-.305.27-.375 0-.02.04-.08.12-.18.08-.11.13-.18.15-.21.1-.15.25-.325.45-.525s.41-.385.63-.555c.22-.18.405-.295.555-.345l.21-.075c.14.04.265.1.375.18.11.07.165.185.165.345 0 .19-.06.415-.18.675-.12.26-.26.51-.42.75-.16.24-.295.435-.405.585-.07.1-.15.195-.24.285-.08.08-.155.175-.225.285a.564.564 0 00-.18.165c-.05.06-.1.115-.15.165-.06.06-.165.16-.315.3-.15.14-.32.285-.51.435-.18.15-.35.285-.51.405-.15.11-.255.17-.315.18l-.015.015a.634.634 0 01-.225.15.66.66 0 00-.225.105.8.8 0 00-.135.255c-.05.12-.095.25-.135.39-.04.13-.075.23-.105.3-.04.11-.075.23-.105.36-.02.12-.055.23-.105.33l-.09.315a18.584 18.584 0 00-.135.6c-.01.11-.01.165 0 .165.02-.01.11-.11.27-.3l.63-.705c.25-.29.505-.575.765-.855.27-.28.51-.52.72-.72.21-.2.355-.305.435-.315h.075c.14 0 .25.02.33.06.08.03.105.14.075.33-.11.37-.255.74-.435 1.11-.17.36-.255.735-.255 1.125 0 .05.005.13.015.24.02.11.05.205.09.285.05.09.11.135.18.135.13 0 .265-.07.405-.21.15-.14.295-.295.435-.465.14-.17.26-.295.36-.375v.165a.98.98 0 00-.06.105l-.06.12c-.07.1-.18.23-.33.39-.14.16-.26.28-.36.36a.353.353 0 01-.135.045.943.943 0 01-.15.015.298.298 0 01-.135-.03c-.04-.02-.085-.04-.135-.06-.34-.16-.51-.43-.51-.81 0-.19.005-.365.015-.525.02-.16.055-.33.105-.51.05-.17.09-.34.12-.51l.12-.51-.48.465a.57.57 0 00-.135.165.633.633 0 01-.12.165c-.05.07-.11.13-.18.18-.07.05-.135.11-.195.18-.09.09-.175.195-.255.315-.07.11-.15.21-.24.3l-.21.21c-.06.07-.12.145-.18.225-.04.05-.095.135-.165.255-.07.11-.145.22-.225.33-.07.11-.135.175-.195.195zm.87-3.585h.045c.71-.44 1.375-.98 1.995-1.62a6.878 6.878 0 001.41-2.145c.02-.07.025-.12.015-.15v-.15c0-.03-.03-.04-.09-.03a.39.39 0 01-.12-.015c-.07.04-.16.085-.27.135-.11.05-.195.1-.255.15a.098.098 0 00-.045.045c0 .02-.005.04-.015.06l-.195.18a.98.98 0 01-.195.15c-.04.04-.075.08-.105.12a1.126 1.126 0 01-.21.21c-.03.03-.07.065-.12.105-.03.02-.09.085-.18.195a124.473 124.473 0 01-.57.78c-.08.12-.13.2-.15.24a.447.447 0 00-.045.06c-.01.03-.025.05-.045.06 0 .05-.015.075-.045.075l.015.06h-.045a.97.97 0 01-.105.21c-.06.09-.11.135-.15.135v.015h.015v.015c0 .01-.025.07-.075.18a11.378 11.378 0 01-.375.75l-.09.18zm3.717 3.315c-.16 0-.28-.055-.36-.165a.69.69 0 01-.12-.39c0-.22.055-.48.165-.78.11-.3.21-.555.3-.765.03-.06.065-.12.105-.18a.42.42 0 00.06-.21c.04-.03.085-.105.135-.225.05-.12.08-.185.09-.195v-.015a.189.189 0 00-.105.075.352.352 0 01-.12.075h-.015l-.015-.015v-.015c0-.03.01-.045.03-.045.02-.04.05-.07.09-.09.04-.03.07-.065.09-.105.07-.08.13-.16.18-.24.06-.08.13-.155.21-.225.06.01.155.04.285.09.13.04.195.1.195.18 0 .06-.045.15-.135.27-.08.12-.17.24-.27.36-.09.12-.155.21-.195.27-.1.15-.175.275-.225.375-.05.1-.095.2-.135.3-.04.1-.095.23-.165.39-.05.11-.1.225-.15.345a.966.966 0 00-.075.375v.135c0 .05.005.105.015.165.01.05.035.075.075.075.04 0 .085-.015.135-.045.06-.03.105-.06.135-.09.2-.17.385-.355.555-.555l.525-.585.66-.69c.23-.24.445-.485.645-.735.04-.04.09-.11.15-.21.06-.1.12-.15.18-.15h.03c.05 0 .115.025.195.075.09.04.135.09.135.15 0 .13-.03.22-.09.27a.66.66 0 00-.135.24c-.01.05-.03.1-.06.15-.02.04-.045.085-.075.135-.09.15-.165.365-.225.645-.05.28-.075.505-.075.675v.135c0 .07.005.145.015.225.01.07.035.115.075.135.09-.01.165-.065.225-.165.07-.1.13-.195.18-.285.06-.1.115-.15.165-.15v.06a.22.22 0 01-.045.135c-.02.04-.04.085-.06.135-.04.11-.085.22-.135.33-.04.1-.14.15-.3.15-.2 0-.335-.09-.405-.27a1.529 1.529 0 01-.105-.525c0-.19.02-.4.06-.63.05-.24.11-.445.18-.615l.03-.06c.01-.02.01-.04 0-.06h-.03c-.06 0-.125.045-.195.135-.07.08-.135.165-.195.255a.4.4 0 01-.18.15v.015l-.12.105c-.1.18-.225.35-.375.51a286.776 286.776 0 00-.87.93c-.16.17-.34.255-.54.255zm8.395 3.27c-.26 0-.515-.105-.765-.315-.25-.21-.49-.47-.72-.78a8.626 8.626 0 01-.585-.945l-.42-.765c-.14-.28-.275-.6-.405-.96-.13-.37-.235-.71-.315-1.02l-.06-.225c-.02-.12-.055-.18-.105-.18-.03 0-.045.015-.045.045-.04.01-.07.04-.09.09a.586.586 0 00-.045.12c-.05 0-.11.05-.18.15-.06.1-.12.205-.18.315-.06.1-.11.15-.15.15a.188.188 0 01-.045.075l-.045.045a.322.322 0 00-.06.105.333.333 0 01-.045.105c-.04.06-.085.12-.135.18-.04.06-.08.125-.12.195-.02.04-.035.1-.045.18 0 .07-.025.12-.075.15-.01.01-.03.015-.06.015a.33.33 0 01-.24-.105.284.284 0 01-.105-.225c0-.21.055-.415.165-.615.11-.21.165-.37.165-.48l.075-.165c.05-.1.095-.195.135-.285.04-.1.06-.16.06-.18.33-.78.69-1.495 1.08-2.145.39-.66.85-1.325 1.38-1.995l.045-.045a.098.098 0 01.045-.045v-.03c.17-.18.355-.385.555-.615.2-.24.405-.415.615-.525.06.02.13.045.21.075.08.03.135.075.165.135.11.16.165.335.165.525 0 .07-.005.14-.015.21a.633.633 0 01-.06.195c-.04.11-.145.27-.315.48-.17.2-.37.41-.6.63-.22.22-.43.425-.63.615-.2.18-.355.31-.465.39-.05.03-.125.09-.225.18-.09.09-.18.175-.27.255-.09.07-.165.105-.225.105v-.03c.42-.41.83-.82 1.23-1.23.41-.42.78-.88 1.11-1.38.05-.08.115-.18.195-.3s.12-.225.12-.315c0-.02-.005-.04-.015-.06v-.075a.653.653 0 00-.45.225c-.1.13-.22.235-.36.315l-.135.075c-.01.01-.04.05-.09.12-.05.07-.09.12-.12.15-.04.04-.09.08-.15.12-.05.04-.08.09-.09.15-.07.03-.13.08-.18.15-.04.06-.08.125-.12.195-.14.06-.27.195-.39.405-.11.21-.21.38-.3.51a.727.727 0 01-.09.105.187.187 0 00-.06.135c-.04.02-.11.105-.21.255-.09.15-.145.25-.165.3l-.015.015c0 .02-.015.055-.045.105-.02.05-.035.085-.045.105-.01.01-.045.065-.105.165-.05.09-.105.2-.165.33-.06.13-.115.245-.165.345-.04.09-.06.14-.06.15-.06.08-.135.225-.225.435-.08.2-.14.355-.18.465l-.03.03a.836.836 0 01-.105.315c-.06.11-.09.22-.09.33v.03h.015c.03 0 .06-.03.09-.09a.92.92 0 01.075-.12l.15-.18c.02-.02.035-.04.045-.06a.188.188 0 01.045-.075.697.697 0 01.105-.135l.12-.12c.02-.02.055-.07.105-.15.06-.08.12-.155.18-.225.06-.08.09-.125.09-.135.01-.01.015-.03.015-.06a.343.343 0 00-.075-.195.266.266 0 00-.18-.12v-.015c.05-.01.09-.02.12-.03.04-.01.08-.015.12-.015.07 0 .135.005.195.015.06.01.125.015.195.015.03-.05.065-.09.105-.12.05-.04.095-.08.135-.12.12-.11.26-.225.42-.345.16-.12.325-.18.495-.18.13 0 .235.04.315.12.09.07.135.17.135.3 0 .16-.1.315-.3.465-.19.15-.355.25-.495.3-.17.07-.355.105-.555.105-.03 0-.05.02-.06.06a.41.41 0 00-.015.09c0 .1.025.23.075.39.06.16.105.295.135.405.01.03.015.06.015.09s.005.06.015.09c.05.17.145.425.285.765.15.33.325.69.525 1.08.2.4.415.775.645 1.125.24.36.475.655.705.885.23.23.445.345.645.345.17 0 .305-.075.405-.225.08-.09.15-.25.21-.48.06-.22.105-.45.135-.69.03-.24.04-.415.03-.525h.015v.015h.03c.01.04.015.08.015.12.01.04.015.08.015.12 0 .1-.005.2-.015.3v.3c0 .12-.005.24-.015.36-.01.13-.04.255-.09.375-.06.16-.185.275-.375.345-.19.08-.36.12-.51.12zm-2.88-5.67v-.015l.03-.015c.09-.02.22-.075.39-.165.17-.1.32-.21.45-.33.14-.13.21-.24.21-.33 0-.02-.015-.03-.045-.03h-.06c-.04.02-.12.065-.24.135-.11.06-.215.13-.315.21-.09.08-.14.145-.15.195-.05.03-.12.075-.21.135-.08.05-.12.115-.12.195.03 0 .05.005.06.015zM62.385 26v-3.5h1.52c.23 0 .428.042.595.125.17.083.302.202.395.355.093.15.14.327.14.53s-.047.382-.14.535a.974.974 0 01-.395.355 1.34 1.34 0 01-.595.125H62.77V26h-.385zm.385-1.81h1.105c.237 0 .425-.06.565-.18a.627.627 0 00.21-.495c0-.207-.07-.37-.21-.49-.14-.12-.328-.18-.565-.18H62.77v1.345zm4.492 1.865c-.253 0-.49-.045-.71-.135a1.872 1.872 0 01-.575-.385 1.872 1.872 0 01-.385-.575 1.857 1.857 0 01-.135-.71c0-.253.045-.488.135-.705a1.796 1.796 0 01.96-.96 1.8 1.8 0 01.71-.14c.25 0 .484.047.7.14.22.09.412.218.575.385.167.163.295.355.385.575.094.217.14.452.14.705a1.8 1.8 0 01-1.1 1.67c-.216.09-.45.135-.7.135zm0-.355a1.387 1.387 0 001-.415c.13-.133.23-.288.3-.465.074-.177.11-.367.11-.57 0-.207-.036-.397-.11-.57-.07-.177-.17-.33-.3-.46a1.34 1.34 0 00-1-.42c-.2 0-.386.037-.56.11-.17.073-.32.177-.45.31a1.444 1.444 0 00-.405 1.025c0 .207.035.398.105.575.074.177.174.332.3.465.13.13.28.232.45.305.174.073.36.11.56.11zm2.403.3v-3.5h2.505v.34h-2.12v1.225h1.385v.335H70.05v1.26h2.14V26h-2.525zm4.046 0v-3.155h-1.265V22.5h2.915v.345h-1.265V26h-.385z" fill="#000"/></svg>