<svg width="123" height="40" viewBox="0 0 123 40" fill="none" xmlns="http://www.w3.org/2000/svg">
<path d="M31.7935 6.4639C31.7935 6.4639 31.8977 0.420151 52.7382 1.04537L74.0997 15.4653C74.0997 15.4653 49.4037 17.5094 49.2995 24.2826C49.2995 24.2826 37.3162 20.2186 22.832 31.5767L9.38989 12.4035C9.38989 12.4035 22.832 0.524353 31.7935 6.4639Z" stroke="#8835CA" stroke-width="0.208405"/>
<path d="M9.42312 12.3478C9.42312 12.3478 7.86008 13.8867 8.17268 15.3055L22.8653 36.7312V31.6253" stroke="#8835CA" stroke-width="0.208405"/>
<path d="M23.1687 36.7312C23.1687 36.7312 42.9482 25.052 46.348 26.9291L49.4384 24.3221H53.6619C53.6619 24.3221 66.1273 19.6295 74.4716 20.3595L74.0596 15.2899" stroke="#8835CA" stroke-width="0.208405"/>
<path d="M8.05148 15.2907C8.05148 15.2907 6.55784 15.1986 7.13096 16.8137L21.8756 38.9047C21.8756 38.9047 44.8002 26.4004 48.5515 28.5886C48.5515 28.5886 51.6776 29.3739 55.6373 25.4384C55.6373 25.4384 61.2894 22.4407 69.7694 22.0239L74.8291 21.5733L74.0997 15.4774" stroke="#8835CA" stroke-width="0.208405"/>
<path d="M31.7935 6.46394L49.4385 24.322" stroke="#8835CA" stroke-width="0.208405"/>
<path d="M8.445 19.86C8.425 19.86 8.41 19.855 8.4 19.845V19.815H8.415C8.565 19.695 8.72 19.545 8.88 19.365C9.05 19.195 9.135 19.005 9.135 18.795C9.135 18.565 9.035 18.38 8.835 18.24C8.645 18.1 8.41 17.995 8.13 17.925C7.85 17.855 7.57 17.81 7.29 17.79C7.01 17.76 6.785 17.745 6.615 17.745C6.325 17.745 5.995 17.76 5.625 17.79C5.255 17.81 4.885 17.845 4.515 17.895C4.145 17.945 3.815 18 3.525 18.06C3.385 18.09 3.275 18.125 3.195 18.165C3.115 18.215 2.99 18.24 2.82 18.24C2.81 18.24 2.78 18.245 2.73 18.255C2.69 18.275 2.665 18.29 2.655 18.3C2.625 18.29 2.545 18.285 2.415 18.285C2.295 18.285 2.225 18.28 2.205 18.27V18.285L2.22 18.3V18.315C2.23 18.305 2.245 18.3 2.265 18.3C2.275 18.31 2.275 18.32 2.265 18.33H2.295L2.28 18.345H2.265C2.255 18.355 2.24 18.36 2.22 18.36C2.21 18.36 2.195 18.365 2.175 18.375C2.145 18.455 2.105 18.535 2.055 18.615C2.015 18.695 1.97 18.745 1.92 18.765C1.91 18.795 1.885 18.815 1.845 18.825C1.805 18.835 1.77 18.84 1.74 18.84C1.71 18.84 1.67 18.83 1.62 18.81C1.57 18.8 1.545 18.775 1.545 18.735V18.645C1.545 18.615 1.545 18.585 1.545 18.555C1.545 18.525 1.55 18.495 1.56 18.465H1.455C1.305 18.465 1.145 18.44 0.975 18.39C0.805 18.35 0.675 18.265 0.585 18.135C0.545 18.065 0.5 17.96 0.45 17.82C0.41 17.68 0.39 17.57 0.39 17.49C0.39 17.37 0.455 17.23 0.585 17.07C0.725 16.9 0.88 16.755 1.05 16.635C1.23 16.515 1.38 16.455 1.5 16.455C1.56 16.395 1.66 16.32 1.8 16.23C1.95 16.13 2.1 16.045 2.25 15.975C2.4 15.895 2.515 15.855 2.595 15.855C2.615 15.855 2.63 15.855 2.64 15.855C2.65 15.845 2.66 15.84 2.67 15.84C2.78 15.64 2.895 15.44 3.015 15.24C3.135 15.04 3.26 14.845 3.39 14.655C3.77 14.105 4.17 13.565 4.59 13.035C5.01 12.495 5.47 11.995 5.97 11.535C6.48 11.075 7.035 10.685 7.635 10.365C7.765 10.285 7.895 10.215 8.025 10.155C8.165 10.095 8.315 10.06 8.475 10.05C8.545 10.04 8.61 10.03 8.67 10.02C8.74 10.01 8.81 10 8.88 9.99001C9.02 10.03 9.165 10.085 9.315 10.155C9.475 10.215 9.555 10.335 9.555 10.515C9.555 10.795 9.46 11.075 9.27 11.355C9.09 11.635 8.915 11.875 8.745 12.075C8.415 12.475 8.055 12.865 7.665 13.245C7.285 13.625 6.875 13.955 6.435 14.235C6.245 14.355 6.055 14.48 5.865 14.61C5.675 14.73 5.48 14.845 5.28 14.955C5 15.105 4.715 15.245 4.425 15.375C4.145 15.495 3.86 15.615 3.57 15.735C3.43 15.795 3.295 15.885 3.165 16.005C3.035 16.125 2.915 16.24 2.805 16.35C2.725 16.43 2.63 16.57 2.52 16.77C2.42 16.97 2.335 17.175 2.265 17.385C2.195 17.595 2.16 17.76 2.16 17.88V17.94C2.27 17.93 2.385 17.92 2.505 17.91C2.625 17.9 2.735 17.89 2.835 17.88C3.015 17.86 3.19 17.835 3.36 17.805C3.54 17.775 3.715 17.755 3.885 17.745L3.9 17.73L4.155 17.715C4.225 17.675 4.335 17.645 4.485 17.625C4.645 17.605 4.785 17.595 4.905 17.595C4.995 17.595 5.055 17.6 5.085 17.61C5.235 17.59 5.38 17.58 5.52 17.58C5.66 17.57 5.8 17.56 5.94 17.55C6 17.53 6.075 17.515 6.165 17.505C6.255 17.495 6.33 17.49 6.39 17.49C6.42 17.49 6.45 17.495 6.48 17.505C6.51 17.505 6.54 17.505 6.57 17.505C6.59 17.505 6.665 17.5 6.795 17.49C6.935 17.47 7.015 17.455 7.035 17.445C7.235 17.455 7.445 17.465 7.665 17.475C7.885 17.475 8.095 17.505 8.295 17.565C8.495 17.615 8.67 17.72 8.82 17.88C8.94 18.01 9.04 18.2 9.12 18.45C9.2 18.7 9.24 18.915 9.24 19.095C9.24 19.165 9.23 19.24 9.21 19.32C9.2 19.4 9.17 19.47 9.12 19.53C9.08 19.58 9.03 19.61 8.97 19.62C8.91 19.64 8.85 19.66 8.79 19.68C8.74 19.71 8.685 19.745 8.625 19.785C8.575 19.835 8.515 19.86 8.445 19.86ZM3.15 15.66C3.19 15.68 3.225 15.68 3.255 15.66C4.065 15.32 4.845 14.93 5.595 14.49C6.345 14.04 7.03 13.515 7.65 12.915C8.28 12.305 8.8 11.605 9.21 10.815C9.23 10.765 9.255 10.71 9.285 10.65C9.325 10.58 9.345 10.52 9.345 10.47C9.345 10.4 9.31 10.355 9.24 10.335C9.18 10.305 9.125 10.285 9.075 10.275C8.925 10.315 8.775 10.36 8.625 10.41C8.485 10.45 8.345 10.5 8.205 10.56C7.975 10.66 7.76 10.785 7.56 10.935C7.36 11.075 7.16 11.215 6.96 11.355L6.33 11.805C5.85 12.145 5.4 12.56 4.98 13.05C4.56 13.53 4.18 14.01 3.84 14.49C3.81 14.54 3.745 14.645 3.645 14.805C3.545 14.965 3.445 15.13 3.345 15.3C3.255 15.46 3.19 15.58 3.15 15.66ZM1.44 17.97H1.74C1.82 17.8 1.895 17.615 1.965 17.415C2.045 17.215 2.12 17.03 2.19 16.86C2.31 16.59 2.435 16.325 2.565 16.065C2.455 16.125 2.29 16.225 2.07 16.365C1.85 16.495 1.62 16.645 1.38 16.815C1.15 16.975 0.95 17.13 0.78 17.28C0.62 17.43 0.54 17.55 0.54 17.64C0.54 17.76 0.6 17.845 0.72 17.895C0.84 17.935 0.97 17.96 1.11 17.97C1.26 17.97 1.37 17.97 1.44 17.97ZM11.1991 14.265C11.1591 14.265 11.1091 14.24 11.0491 14.19C10.9891 14.14 10.9591 14.095 10.9591 14.055C10.9591 14.035 10.9941 13.99 11.0641 13.92C11.1341 13.84 11.2091 13.765 11.2891 13.695C11.3791 13.615 11.4341 13.565 11.4541 13.545C11.5341 13.565 11.5741 13.61 11.5741 13.68C11.5741 13.72 11.5491 13.79 11.4991 13.89C11.4591 13.98 11.4091 14.065 11.3491 14.145C11.2991 14.225 11.2491 14.265 11.1991 14.265ZM9.60914 18.15C9.57914 18.15 9.54914 18.14 9.51914 18.12C9.49914 18.1 9.47414 18.085 9.44414 18.075C9.37414 18.015 9.32414 17.965 9.29414 17.925C9.26414 17.885 9.24914 17.815 9.24914 17.715C9.24914 17.395 9.32414 17.09 9.47414 16.8C9.62414 16.5 9.76414 16.215 9.89414 15.945C9.91414 15.925 9.91914 15.905 9.90914 15.885C9.89914 15.855 9.89414 15.83 9.89414 15.81C9.89414 15.72 9.92914 15.62 9.99914 15.51C10.0791 15.39 10.1691 15.275 10.2691 15.165C10.3691 15.055 10.4491 14.975 10.5091 14.925C10.5691 14.925 10.6591 14.935 10.7791 14.955C10.8991 14.965 10.9591 15.01 10.9591 15.09C10.9591 15.1 10.9091 15.16 10.8091 15.27C10.7091 15.38 10.6491 15.45 10.6291 15.48C10.4991 15.68 10.3441 15.92 10.1641 16.2C9.99414 16.47 9.84414 16.75 9.71414 17.04C9.58414 17.33 9.51914 17.605 9.51914 17.865C9.63914 17.845 9.76414 17.775 9.89414 17.655C10.0341 17.525 10.1391 17.415 10.2091 17.325H10.2241V17.34C10.2241 17.38 10.2041 17.42 10.1641 17.46C10.1241 17.5 10.0941 17.535 10.0741 17.565C10.0341 17.635 9.96914 17.75 9.87914 17.91C9.79914 18.07 9.70914 18.15 9.60914 18.15ZM11.2787 18.135C11.1187 18.135 10.9987 18.08 10.9187 17.97C10.8387 17.85 10.7987 17.72 10.7987 17.58C10.7987 17.36 10.8537 17.1 10.9637 16.8C11.0737 16.5 11.1737 16.245 11.2637 16.035C11.2937 15.975 11.3287 15.915 11.3687 15.855C11.4087 15.785 11.4287 15.715 11.4287 15.645C11.4687 15.615 11.5137 15.54 11.5637 15.42C11.6137 15.3 11.6437 15.235 11.6537 15.225V15.21C11.6137 15.22 11.5787 15.245 11.5487 15.285C11.5187 15.315 11.4787 15.34 11.4287 15.36H11.4137C11.4037 15.35 11.3987 15.345 11.3987 15.345C11.3987 15.335 11.3987 15.33 11.3987 15.33C11.3987 15.3 11.4087 15.285 11.4287 15.285C11.4487 15.245 11.4787 15.215 11.5187 15.195C11.5587 15.165 11.5887 15.13 11.6087 15.09C11.6787 15.01 11.7387 14.93 11.7887 14.85C11.8487 14.77 11.9187 14.695 11.9987 14.625C12.0587 14.635 12.1537 14.665 12.2837 14.715C12.4137 14.755 12.4787 14.815 12.4787 14.895C12.4787 14.955 12.4337 15.045 12.3437 15.165C12.2637 15.285 12.1737 15.405 12.0737 15.525C11.9837 15.645 11.9187 15.735 11.8787 15.795C11.7787 15.945 11.7037 16.07 11.6537 16.17C11.6037 16.27 11.5587 16.37 11.5187 16.47C11.4787 16.57 11.4237 16.7 11.3537 16.86C11.3037 16.97 11.2537 17.085 11.2037 17.205C11.1537 17.325 11.1287 17.45 11.1287 17.58V17.715C11.1287 17.765 11.1337 17.82 11.1437 17.88C11.1537 17.93 11.1787 17.955 11.2187 17.955C11.2587 17.955 11.3037 17.94 11.3537 17.91C11.4137 17.88 11.4587 17.85 11.4887 17.82C11.6887 17.65 11.8737 17.465 12.0437 17.265C12.2237 17.065 12.3987 16.87 12.5687 16.68C12.7887 16.45 13.0087 16.22 13.2287 15.99C13.4587 15.75 13.6737 15.505 13.8737 15.255C13.9137 15.215 13.9637 15.145 14.0237 15.045C14.0837 14.945 14.1437 14.895 14.2037 14.895H14.2337C14.2837 14.895 14.3487 14.92 14.4287 14.97C14.5187 15.01 14.5637 15.06 14.5637 15.12C14.5637 15.25 14.5337 15.34 14.4737 15.39C14.4237 15.44 14.3787 15.52 14.3387 15.63C14.3287 15.68 14.3087 15.73 14.2787 15.78C14.2587 15.82 14.2337 15.865 14.2037 15.915C14.1137 16.065 14.0387 16.28 13.9787 16.56C13.9287 16.84 13.9037 17.065 13.9037 17.235V17.37C13.9037 17.44 13.9087 17.515 13.9187 17.595C13.9287 17.665 13.9537 17.71 13.9937 17.73C14.0837 17.72 14.1587 17.665 14.2187 17.565C14.2887 17.465 14.3487 17.37 14.3987 17.28C14.4587 17.18 14.5137 17.13 14.5637 17.13V17.19C14.5637 17.24 14.5487 17.285 14.5187 17.325C14.4987 17.365 14.4787 17.41 14.4587 17.46C14.4187 17.57 14.3737 17.68 14.3237 17.79C14.2837 17.89 14.1837 17.94 14.0237 17.94C13.8237 17.94 13.6887 17.85 13.6187 17.67C13.5487 17.48 13.5137 17.305 13.5137 17.145C13.5137 16.955 13.5337 16.745 13.5737 16.515C13.6237 16.275 13.6837 16.07 13.7537 15.9C13.7637 15.88 13.7737 15.86 13.7837 15.84C13.7937 15.82 13.7937 15.8 13.7837 15.78H13.7537C13.6937 15.78 13.6287 15.825 13.5587 15.915C13.4887 15.995 13.4237 16.08 13.3637 16.17C13.3037 16.25 13.2437 16.3 13.1837 16.32V16.335L13.0637 16.44C12.9637 16.62 12.8387 16.79 12.6887 16.95C12.5387 17.11 12.3937 17.265 12.2537 17.415C12.1337 17.545 11.9887 17.7 11.8187 17.88C11.6587 18.05 11.4787 18.135 11.2787 18.135ZM17.3188 19.35C17.2188 19.35 17.0988 19.29 16.9588 19.17C16.8288 19.06 16.7488 18.96 16.7188 18.87C16.6888 18.81 16.6638 18.73 16.6438 18.63C16.6338 18.54 16.6288 18.46 16.6288 18.39C16.6288 18.32 16.6338 18.255 16.6438 18.195C16.6538 18.135 16.6638 18.07 16.6738 18C16.7238 17.86 16.7838 17.675 16.8538 17.445C16.9238 17.205 17.0038 17.025 17.0938 16.905V16.875H17.0638V16.86C17.0838 16.84 17.1088 16.815 17.1388 16.785C17.1688 16.745 17.1888 16.705 17.1988 16.665L17.1388 16.68L17.1238 16.65H17.1088C17.0488 16.65 17.0188 16.685 17.0188 16.755C16.9688 16.775 16.9038 16.84 16.8238 16.95C16.7538 17.06 16.7088 17.115 16.6888 17.115L16.6588 17.13L16.6738 17.175H16.6588L16.5688 17.22C16.5488 17.24 16.5338 17.265 16.5238 17.295C16.5138 17.315 16.4838 17.325 16.4338 17.325V17.34C16.3538 17.49 16.2038 17.65 15.9838 17.82C15.7738 17.99 15.5738 18.075 15.3838 18.075C15.2238 18.075 15.1038 18.035 15.0238 17.955C14.9438 17.875 14.8688 17.835 14.7988 17.835L14.7838 17.82C14.7538 17.72 14.7138 17.66 14.6638 17.64C14.6138 17.61 14.5888 17.52 14.5888 17.37V17.25L14.6188 17.175V17.16C14.6188 17.13 14.6288 17.08 14.6488 17.01C14.6788 16.93 14.7138 16.89 14.7538 16.89C14.7538 16.78 14.7938 16.655 14.8738 16.515C14.9538 16.365 15.0438 16.225 15.1438 16.095C15.2538 15.955 15.3438 15.845 15.4138 15.765C15.5838 15.565 15.7688 15.405 15.9688 15.285C16.1688 15.165 16.3788 15.04 16.5988 14.91V14.925C16.7088 14.855 16.8038 14.82 16.8838 14.82C16.9038 14.81 16.9338 14.805 16.9738 14.805C17.0538 14.805 17.1538 14.84 17.2738 14.91C17.4038 14.98 17.4688 15.06 17.4688 15.15C17.4688 15.17 17.4688 15.205 17.4688 15.255C17.4688 15.295 17.4588 15.32 17.4388 15.33L17.3338 15.435C17.3138 15.455 17.2838 15.505 17.2438 15.585C17.2038 15.665 17.1638 15.705 17.1238 15.705H17.1088L17.1238 15.585C17.1638 15.535 17.1838 15.47 17.1838 15.39C17.1838 15.33 17.1688 15.265 17.1388 15.195C17.1188 15.115 17.0688 15.075 16.9888 15.075C16.9188 15.075 16.8288 15.11 16.7188 15.18C16.6088 15.24 16.5238 15.29 16.4638 15.33C16.4238 15.36 16.3838 15.39 16.3438 15.42C16.3038 15.44 16.2588 15.465 16.2088 15.495C16.0488 15.625 15.8688 15.81 15.6688 16.05C15.4788 16.28 15.3088 16.525 15.1588 16.785C15.0188 17.045 14.9488 17.29 14.9488 17.52C14.9488 17.6 14.9688 17.68 15.0088 17.76C15.0488 17.84 15.1188 17.88 15.2188 17.88C15.3388 17.88 15.4938 17.805 15.6838 17.655C15.8838 17.495 16.0938 17.295 16.3138 17.055C16.5338 16.815 16.7538 16.565 16.9738 16.305C17.1938 16.045 17.3888 15.805 17.5588 15.585C17.7388 15.365 17.8738 15.2 17.9638 15.09C18.0738 14.94 18.1838 14.79 18.2938 14.64C18.4038 14.48 18.5088 14.325 18.6088 14.175C18.6288 14.145 18.6588 14.105 18.6988 14.055C18.7488 13.995 18.7738 13.95 18.7738 13.92C18.7838 13.92 18.8238 13.87 18.8938 13.77C18.9638 13.67 19.0488 13.555 19.1488 13.425C19.2488 13.295 19.3388 13.175 19.4188 13.065C19.4988 12.955 19.5488 12.885 19.5688 12.855C19.6188 12.795 19.6638 12.74 19.7038 12.69C19.7438 12.63 19.7838 12.565 19.8238 12.495L19.8538 12.45L19.8688 12.465C19.8788 12.435 19.9188 12.365 19.9888 12.255C20.0688 12.145 20.1238 12.085 20.1538 12.075L20.1388 12.045C20.2388 11.985 20.3388 11.88 20.4388 11.73C20.5388 11.58 20.6688 11.47 20.8288 11.4C20.8788 11.41 20.9238 11.42 20.9638 11.43C21.0138 11.44 21.0588 11.455 21.0988 11.475V11.505C21.1188 11.525 21.1338 11.55 21.1438 11.58C21.1638 11.6 21.1738 11.625 21.1738 11.655C21.1738 11.715 21.1388 11.785 21.0688 11.865C21.0088 11.935 20.9588 11.995 20.9188 12.045C20.8188 12.175 20.6938 12.305 20.5438 12.435C20.3938 12.555 20.2538 12.67 20.1238 12.78C20.0738 12.83 20.0288 12.885 19.9888 12.945C19.9588 13.005 19.9188 13.06 19.8688 13.11C19.8388 13.15 19.8088 13.185 19.7788 13.215C19.7488 13.235 19.7188 13.26 19.6888 13.29C19.6388 13.36 19.5888 13.43 19.5388 13.5C19.4888 13.57 19.4338 13.635 19.3738 13.695C19.2438 13.835 19.1238 13.985 19.0138 14.145C18.9038 14.295 18.7938 14.455 18.6838 14.625C18.6238 14.715 18.5688 14.8 18.5188 14.88C18.4788 14.96 18.4188 15.04 18.3388 15.12C18.3088 15.16 18.2788 15.225 18.2488 15.315C18.2188 15.395 18.1788 15.44 18.1288 15.45C18.1188 15.52 18.0688 15.63 17.9788 15.78C17.8888 15.93 17.8238 16.045 17.7838 16.125C17.7638 16.165 17.7388 16.235 17.7088 16.335C17.6888 16.435 17.6538 16.495 17.6038 16.515V16.53C17.6038 16.57 17.5888 16.61 17.5588 16.65C17.5288 16.68 17.5038 16.715 17.4838 16.755C17.4138 16.905 17.3388 17.1 17.2588 17.34C17.1888 17.57 17.1238 17.805 17.0638 18.045C17.0138 18.285 16.9888 18.485 16.9888 18.645C16.9888 18.745 16.9988 18.845 17.0188 18.945C17.0488 19.055 17.1088 19.135 17.1988 19.185L17.2138 19.17L17.2288 19.185H17.2438C17.3238 19.145 17.4088 19.11 17.4988 19.08C17.5488 19.06 17.5888 19.025 17.6188 18.975C17.6488 18.935 17.6988 18.915 17.7688 18.915C17.7588 18.955 17.7488 18.99 17.7388 19.02C17.7388 19.06 17.7288 19.095 17.7088 19.125C17.6988 19.175 17.6438 19.225 17.5438 19.275C17.4438 19.325 17.3688 19.35 17.3188 19.35ZM23.3216 18.795C23.2716 18.795 23.2216 18.79 23.1716 18.78C23.1316 18.77 23.0866 18.76 23.0366 18.75L22.9916 18.78C22.8316 18.65 22.7266 18.47 22.6766 18.24C22.6366 18.01 22.6166 17.8 22.6166 17.61C22.6166 17.41 22.6216 17.21 22.6316 17.01C22.6516 16.8 22.6666 16.6 22.6766 16.41C22.6866 16.27 22.7066 16.13 22.7366 15.99C22.7766 15.85 22.7966 15.715 22.7966 15.585C22.7966 15.525 22.7916 15.485 22.7816 15.465L22.7516 15.435L22.7216 15.45C22.6416 15.49 22.5666 15.59 22.4966 15.75C22.4366 15.9 22.3866 16.015 22.3466 16.095C22.3166 16.155 22.2466 16.275 22.1366 16.455C22.0366 16.625 21.9316 16.79 21.8216 16.95C21.7116 17.11 21.6316 17.21 21.5816 17.25C21.4916 17.32 21.4016 17.355 21.3116 17.355C21.2116 17.355 21.1166 17.33 21.0266 17.28C20.9466 17.23 20.9066 17.145 20.9066 17.025C20.9066 16.985 20.9316 16.885 20.9816 16.725C21.0416 16.565 21.1116 16.385 21.1916 16.185C21.2716 15.985 21.3366 15.795 21.3866 15.615C21.4466 15.425 21.4766 15.28 21.4766 15.18C21.4766 15.12 21.4616 15.09 21.4316 15.09C21.3916 15.09 21.3066 15.145 21.1766 15.255C21.0566 15.355 20.9366 15.465 20.8166 15.585C20.6966 15.695 20.6216 15.77 20.5916 15.81L20.4866 15.99C20.3266 16.12 20.1816 16.275 20.0516 16.455C20.0416 16.465 20.0316 16.48 20.0216 16.5C20.0116 16.52 20.0016 16.54 19.9916 16.56C19.9716 16.59 19.9216 16.655 19.8416 16.755C19.7716 16.845 19.6966 16.935 19.6166 17.025C19.5466 17.105 19.4916 17.155 19.4516 17.175C19.4216 17.245 19.3816 17.31 19.3316 17.37C19.2916 17.42 19.2416 17.475 19.1816 17.535C19.1216 17.595 19.0466 17.715 18.9566 17.895C18.8766 18.075 18.8216 18.205 18.7916 18.285C18.7816 18.305 18.7416 18.325 18.6716 18.345C18.6116 18.365 18.5666 18.375 18.5366 18.375C18.4966 18.375 18.4466 18.355 18.3866 18.315C18.3366 18.275 18.3116 18.235 18.3116 18.195C18.3116 18.165 18.3466 18.065 18.4166 17.895C18.4966 17.725 18.5866 17.53 18.6866 17.31C18.7866 17.09 18.8766 16.895 18.9566 16.725C19.0466 16.555 19.1016 16.46 19.1216 16.44C19.1116 16.42 19.1166 16.4 19.1366 16.38C19.1566 16.36 19.1716 16.345 19.1816 16.335C19.1816 16.285 19.2116 16.21 19.2716 16.11C19.3316 16 19.3716 15.925 19.3916 15.885C19.4816 15.715 19.5816 15.51 19.6916 15.27C19.8116 15.03 19.9116 14.79 19.9916 14.55C20.0816 14.31 20.1266 14.1 20.1266 13.92C20.0666 13.92 20.0066 13.93 19.9466 13.95C19.8866 13.97 19.8266 13.98 19.7666 13.98C19.7266 13.95 19.7066 13.925 19.7066 13.905C19.7066 13.845 19.7766 13.815 19.9166 13.815C19.9766 13.835 20.0616 13.845 20.1716 13.845C20.2916 13.835 20.4016 13.84 20.5016 13.86C20.6016 13.88 20.6516 13.945 20.6516 14.055C20.6516 14.105 20.6066 14.22 20.5166 14.4C20.4366 14.58 20.3366 14.79 20.2166 15.03C20.0966 15.26 19.9816 15.48 19.8716 15.69C19.7716 15.9 19.7016 16.055 19.6616 16.155C19.6516 16.205 19.6266 16.25 19.5866 16.29C19.5466 16.32 19.5266 16.37 19.5266 16.44C19.4966 16.45 19.4816 16.48 19.4816 16.53C19.4816 16.54 19.4816 16.555 19.4816 16.575C19.4916 16.595 19.4966 16.615 19.4966 16.635H19.5116C19.5316 16.595 19.5916 16.515 19.6916 16.395C19.7916 16.275 19.8966 16.155 20.0066 16.035C20.1166 15.905 20.1866 15.82 20.2166 15.78H20.2466C20.3966 15.61 20.5466 15.45 20.6966 15.3C20.8566 15.14 21.0316 15 21.2216 14.88C21.2616 14.86 21.2866 14.835 21.2966 14.805L21.3266 14.82C21.3466 14.82 21.3666 14.815 21.3866 14.805C21.4166 14.795 21.4466 14.79 21.4766 14.79C21.5866 14.79 21.6916 14.835 21.7916 14.925C21.8916 15.015 21.9416 15.12 21.9416 15.24C21.9416 15.39 21.8916 15.545 21.7916 15.705C21.7016 15.855 21.6216 16 21.5516 16.14C21.5116 16.22 21.4766 16.305 21.4466 16.395C21.4166 16.475 21.3816 16.555 21.3416 16.635C21.3316 16.675 21.3016 16.74 21.2516 16.83C21.2116 16.92 21.1916 16.985 21.1916 17.025C21.1916 17.035 21.1916 17.045 21.1916 17.055C21.2016 17.055 21.2066 17.06 21.2066 17.07C21.2866 17.05 21.3516 17.01 21.4016 16.95C21.4516 16.88 21.5016 16.815 21.5516 16.755C21.6516 16.625 21.7516 16.495 21.8516 16.365C21.9516 16.235 22.0516 16.105 22.1516 15.975L22.3466 15.75C22.3966 15.67 22.4566 15.58 22.5266 15.48C22.5966 15.38 22.6666 15.31 22.7366 15.27C22.8166 15.24 22.8916 15.225 22.9616 15.225C23.0416 15.225 23.1316 15.235 23.2316 15.255C23.3416 15.275 23.3966 15.335 23.3966 15.435C23.3966 15.585 23.3616 15.73 23.2916 15.87C23.2216 16 23.1666 16.135 23.1266 16.275C23.1066 16.345 23.0766 16.475 23.0366 16.665C22.9966 16.845 22.9616 17.03 22.9316 17.22C22.9016 17.4 22.8866 17.53 22.8866 17.61C22.8866 17.67 22.8966 17.71 22.9166 17.73C22.9066 17.74 22.9016 17.765 22.9016 17.805C22.9016 17.845 22.9066 17.89 22.9166 17.94C22.9366 17.98 22.9516 18.025 22.9616 18.075C22.9616 18.175 22.9716 18.3 22.9916 18.45C23.0216 18.61 23.1116 18.69 23.2616 18.69V18.675L23.2766 18.69V18.675C23.3266 18.655 23.3866 18.605 23.4566 18.525C23.5366 18.455 23.6066 18.375 23.6666 18.285C23.7366 18.195 23.7716 18.13 23.7716 18.09H23.7866V18.105C23.7866 18.115 23.7766 18.16 23.7566 18.24C23.7466 18.32 23.7316 18.4 23.7116 18.48C23.7016 18.57 23.6916 18.62 23.6816 18.63C23.5916 18.74 23.4716 18.795 23.3216 18.795ZM22.5026 22.545C22.3026 22.545 22.1626 22.48 22.0826 22.35C22.0026 22.22 21.9626 22.07 21.9626 21.9C21.9626 21.7 22.0076 21.495 22.0976 21.285C22.1776 21.075 22.2676 20.885 22.3676 20.715C22.4576 20.575 22.5476 20.43 22.6376 20.28C22.7276 20.14 22.8226 20.005 22.9226 19.875C23.1726 19.545 23.4826 19.2 23.8526 18.84C24.2226 18.49 24.5776 18.2 24.9176 17.97C25.1576 17.8 25.4076 17.655 25.6676 17.535C25.9376 17.405 26.2026 17.275 26.4626 17.145V17.16L26.4776 17.145C26.5676 17.105 26.6726 17.06 26.7926 17.01C26.9226 16.95 27.0326 16.92 27.1226 16.92C27.1726 16.9 27.2026 16.88 27.2126 16.86C27.2626 16.8 27.3026 16.71 27.3326 16.59C27.3726 16.46 27.4076 16.325 27.4376 16.185C27.4776 16.045 27.5126 15.94 27.5426 15.87C27.5826 15.82 27.6076 15.765 27.6176 15.705C27.6276 15.685 27.6276 15.66 27.6176 15.63C27.6176 15.59 27.6226 15.555 27.6326 15.525C27.6526 15.415 27.6726 15.315 27.6926 15.225C27.7126 15.135 27.7276 15.025 27.7376 14.895C27.6576 14.915 27.5626 14.995 27.4526 15.135C27.3526 15.265 27.2626 15.365 27.1826 15.435C27.0826 15.535 26.9776 15.63 26.8676 15.72C26.7676 15.81 26.6626 15.91 26.5526 16.02C26.4526 16.11 26.3226 16.24 26.1626 16.41C26.0026 16.58 25.8276 16.755 25.6376 16.935C25.4476 17.105 25.2626 17.25 25.0826 17.37C24.9026 17.49 24.7476 17.55 24.6176 17.55C24.5076 17.55 24.3826 17.505 24.2426 17.415C24.1126 17.325 24.0226 17.23 23.9726 17.13L23.9876 17.115C23.9776 17.085 23.9726 17.035 23.9726 16.965C23.9726 16.795 24.0126 16.605 24.0926 16.395C24.1826 16.185 24.2876 15.98 24.4076 15.78C24.5276 15.58 24.6376 15.415 24.7376 15.285C24.7776 15.245 24.8126 15.21 24.8426 15.18C24.8826 15.15 24.9176 15.115 24.9476 15.075C25.0276 14.975 25.1126 14.875 25.2026 14.775C25.3026 14.665 25.4226 14.61 25.5626 14.61C25.6126 14.61 25.7076 14.645 25.8476 14.715C25.9876 14.785 26.0576 14.845 26.0576 14.895C26.0576 14.915 26.0476 14.925 26.0276 14.925C26.0076 14.925 25.9826 14.92 25.9526 14.91C25.9326 14.9 25.9126 14.895 25.8926 14.895C25.7926 14.895 25.6526 14.99 25.4726 15.18C25.2926 15.37 25.1076 15.6 24.9176 15.87C24.7276 16.14 24.5676 16.4 24.4376 16.65C24.3176 16.89 24.2576 17.065 24.2576 17.175C24.2576 17.235 24.2876 17.265 24.3476 17.265C24.4476 17.265 24.5526 17.23 24.6626 17.16C24.7826 17.09 24.8776 17.025 24.9476 16.965H24.9776C25.4176 16.645 25.8376 16.31 26.2376 15.96C26.6476 15.6 27.0526 15.235 27.4526 14.865C27.5226 14.805 27.5826 14.74 27.6326 14.67C27.6926 14.6 27.7576 14.54 27.8276 14.49C27.9076 14.5 28.0026 14.525 28.1126 14.565C28.2226 14.605 28.2776 14.68 28.2776 14.79C28.2776 14.84 28.2676 14.89 28.2476 14.94C28.2376 14.98 28.2276 15.025 28.2176 15.075C28.1976 15.175 28.1726 15.275 28.1426 15.375C28.1226 15.475 28.0976 15.575 28.0676 15.675C28.0576 15.735 28.0376 15.795 28.0076 15.855C27.9776 15.905 27.9526 15.96 27.9326 16.02C27.9226 16.08 27.9126 16.145 27.9026 16.215C27.8926 16.275 27.8776 16.335 27.8576 16.395C27.8476 16.435 27.8126 16.505 27.7526 16.605C27.7026 16.705 27.6776 16.775 27.6776 16.815C27.6776 16.855 27.7026 16.875 27.7526 16.875C27.8126 16.865 27.8526 16.86 27.8726 16.86C28.0726 16.86 28.2226 16.905 28.3226 16.995C28.4226 17.085 28.4776 17.13 28.4876 17.13C28.4676 17.14 28.4426 17.145 28.4126 17.145C28.3826 17.145 28.3576 17.15 28.3376 17.16C28.3276 17.12 28.3026 17.095 28.2626 17.085C28.2226 17.075 28.1826 17.07 28.1426 17.07C28.0826 17.07 27.9926 17.09 27.8726 17.13C27.7626 17.16 27.6576 17.21 27.5576 17.28C27.4676 17.34 27.4226 17.41 27.4226 17.49C27.3826 17.51 27.3126 17.595 27.2126 17.745C27.1126 17.895 27.0526 17.995 27.0326 18.045C27.0226 18.065 27.0176 18.09 27.0176 18.12C27.0176 18.15 27.0126 18.175 27.0026 18.195C26.9926 18.235 26.9576 18.275 26.8976 18.315C26.8376 18.355 26.8076 18.435 26.8076 18.555C26.7576 18.575 26.6926 18.63 26.6126 18.72C26.5426 18.82 26.5076 18.895 26.5076 18.945L26.4626 18.975V18.99L26.4776 19.02C26.4576 19.03 26.4326 19.045 26.4026 19.065C26.3826 19.085 26.3726 19.11 26.3726 19.14C26.3326 19.16 26.2826 19.22 26.2226 19.32C26.1726 19.42 26.1226 19.475 26.0726 19.485V19.53L25.9676 19.605V19.65C25.9276 19.68 25.8576 19.75 25.7576 19.86C25.6676 19.97 25.6126 20.03 25.5926 20.04V20.1C25.5626 20.13 25.5476 20.15 25.5476 20.16C25.5076 20.17 25.4676 20.195 25.4276 20.235C25.3976 20.285 25.3676 20.31 25.3376 20.31L25.3526 20.355C25.3426 20.365 25.3226 20.385 25.2926 20.415C25.2626 20.445 25.2426 20.47 25.2326 20.49H25.2026C25.1826 20.54 25.1326 20.6 25.0526 20.67C24.9826 20.74 24.9226 20.8 24.8726 20.85C24.8326 20.9 24.7926 20.95 24.7526 21C24.7126 21.06 24.6676 21.115 24.6176 21.165C24.5476 21.235 24.4676 21.3 24.3776 21.36C24.2876 21.42 24.2026 21.49 24.1226 21.57L23.9576 21.735C23.9076 21.785 23.8526 21.825 23.7926 21.855C23.7426 21.895 23.6926 21.935 23.6426 21.975C23.4826 22.085 23.3026 22.205 23.1026 22.335C22.9026 22.475 22.7026 22.545 22.5026 22.545ZM22.3676 22.425C22.4176 22.425 22.4626 22.415 22.5026 22.395C22.5426 22.385 22.5826 22.375 22.6226 22.365L22.6376 22.35V22.365C22.6776 22.345 22.7676 22.29 22.9076 22.2C23.0476 22.12 23.1826 22.035 23.3126 21.945C23.4426 21.865 23.5076 21.815 23.5076 21.795C23.6276 21.715 23.7376 21.62 23.8376 21.51C23.9476 21.41 24.0526 21.31 24.1526 21.21C24.2626 21.11 24.3726 21.005 24.4826 20.895C24.5926 20.795 24.6926 20.69 24.7826 20.58C24.8426 20.5 24.8976 20.42 24.9476 20.34C25.0076 20.26 25.0676 20.185 25.1276 20.115C25.2076 20.005 25.2926 19.895 25.3826 19.785C25.4826 19.685 25.5726 19.585 25.6526 19.485C25.7426 19.365 25.8276 19.24 25.9076 19.11C25.9876 18.99 26.0676 18.87 26.1476 18.75L26.5076 18.225C26.5276 18.185 26.5426 18.145 26.5526 18.105C26.5726 18.075 26.5926 18.04 26.6126 18C26.6426 17.94 26.6926 17.86 26.7626 17.76C26.8326 17.65 26.8976 17.54 26.9576 17.43C27.0176 17.32 27.0476 17.24 27.0476 17.19C27.0476 17.17 27.0426 17.16 27.0326 17.16C27.0026 17.18 26.9126 17.22 26.7626 17.28C26.6226 17.33 26.4826 17.385 26.3426 17.445C26.2126 17.495 26.1426 17.53 26.1326 17.55C26.0926 17.56 25.9876 17.625 25.8176 17.745C25.6476 17.855 25.4726 17.97 25.2926 18.09C25.1226 18.21 25.0076 18.295 24.9476 18.345C24.7776 18.485 24.6026 18.635 24.4226 18.795C24.2526 18.955 24.0826 19.115 23.9126 19.275C23.8526 19.325 23.8026 19.38 23.7626 19.44C23.7226 19.51 23.6776 19.575 23.6276 19.635C23.5976 19.665 23.5276 19.74 23.4176 19.86C23.3076 19.98 23.2476 20.06 23.2376 20.1C23.1976 20.12 23.1326 20.195 23.0426 20.325C22.9526 20.455 22.8626 20.605 22.7726 20.775C22.6726 20.945 22.5826 21.105 22.5026 21.255C22.4126 21.415 22.3526 21.525 22.3226 21.585V21.63C22.2826 21.67 22.2576 21.745 22.2476 21.855C22.2376 21.975 22.2326 22.06 22.2326 22.11C22.2326 22.15 22.2376 22.21 22.2476 22.29C22.2576 22.38 22.2976 22.425 22.3676 22.425ZM29.708 18.24C29.448 18.24 29.253 18.18 29.123 18.06C28.993 17.94 28.908 17.785 28.868 17.595C28.828 17.405 28.808 17.21 28.808 17.01C28.808 16.85 28.768 16.765 28.688 16.755C28.608 16.735 28.573 16.7 28.583 16.65L28.898 16.41C28.898 16.41 28.913 16.355 28.943 16.245C28.983 16.135 29.023 16.02 29.063 15.9C29.103 15.78 29.128 15.71 29.138 15.69C29.128 15.66 29.153 15.575 29.213 15.435C29.283 15.295 29.358 15.14 29.438 14.97C29.528 14.79 29.613 14.635 29.693 14.505C29.773 14.365 29.823 14.29 29.843 14.28V14.265H29.828C29.878 14.185 29.918 14.105 29.948 14.025C29.988 13.945 30.043 13.875 30.113 13.815C30.113 13.795 30.148 13.735 30.218 13.635C30.298 13.525 30.348 13.455 30.368 13.425C30.628 13.075 30.928 12.695 31.268 12.285C31.618 11.865 31.983 11.545 32.363 11.325C32.413 11.305 32.458 11.285 32.498 11.265C32.538 11.235 32.578 11.215 32.618 11.205C32.638 11.205 32.648 11.205 32.648 11.205C32.658 11.195 32.668 11.19 32.678 11.19C32.798 11.19 32.938 11.24 33.098 11.34C33.268 11.44 33.353 11.56 33.353 11.7C33.353 11.8 33.283 11.96 33.143 12.18C33.013 12.39 32.848 12.63 32.648 12.9C32.448 13.16 32.233 13.425 32.003 13.695C31.783 13.955 31.583 14.185 31.403 14.385C31.223 14.585 31.093 14.725 31.013 14.805C30.983 14.835 30.948 14.865 30.908 14.895C30.868 14.925 30.828 14.96 30.788 15C30.708 15.08 30.628 15.165 30.548 15.255C30.478 15.345 30.398 15.43 30.308 15.51C30.178 15.63 30.048 15.75 29.918 15.87C29.798 15.99 29.673 16.105 29.543 16.215C29.493 16.255 29.438 16.3 29.378 16.35C29.328 16.4 29.278 16.45 29.228 16.5C29.178 16.56 29.143 16.67 29.123 16.83C29.103 16.99 29.093 17.11 29.093 17.19C29.093 17.28 29.103 17.4 29.123 17.55C29.153 17.69 29.203 17.815 29.273 17.925C29.343 18.035 29.438 18.09 29.558 18.09C29.618 18.09 29.668 18.08 29.708 18.06C29.758 18.04 29.808 18.015 29.858 17.985C30.148 17.825 30.418 17.645 30.668 17.445C30.918 17.235 31.153 17.015 31.373 16.785C31.453 16.705 31.528 16.625 31.598 16.545C31.678 16.455 31.758 16.37 31.838 16.29C31.858 16.27 31.898 16.23 31.958 16.17C32.018 16.11 32.068 16.085 32.108 16.095C32.098 16.165 32.058 16.23 31.988 16.29C31.928 16.34 31.878 16.395 31.838 16.455C31.778 16.545 31.723 16.635 31.673 16.725C31.623 16.805 31.573 16.895 31.523 16.995C31.503 17.035 31.473 17.075 31.433 17.115C31.393 17.155 31.358 17.195 31.328 17.235C31.178 17.415 31.013 17.58 30.833 17.73C30.663 17.88 30.463 18.005 30.233 18.105C30.143 18.145 30.058 18.175 29.978 18.195C29.898 18.225 29.808 18.24 29.708 18.24ZM29.408 15.99C29.998 15.44 30.573 14.87 31.133 14.28C31.693 13.68 32.188 13.035 32.618 12.345C32.668 12.265 32.733 12.14 32.813 11.97C32.903 11.79 32.948 11.66 32.948 11.58C32.948 11.52 32.933 11.485 32.903 11.475C32.783 11.515 32.678 11.57 32.588 11.64C32.498 11.71 32.403 11.785 32.303 11.865C32.283 11.885 32.248 11.91 32.198 11.94C32.158 11.96 32.128 11.98 32.108 12C32.038 12.08 31.963 12.16 31.883 12.24C31.803 12.32 31.723 12.4 31.643 12.48C31.533 12.6 31.428 12.725 31.328 12.855C31.228 12.985 31.128 13.115 31.028 13.245C30.798 13.535 30.603 13.795 30.443 14.025C30.293 14.255 30.118 14.53 29.918 14.85C29.878 14.91 29.813 15.02 29.723 15.18C29.633 15.33 29.548 15.485 29.468 15.645C29.398 15.795 29.358 15.905 29.348 15.975L29.408 15.99ZM32.3073 17.985C32.1673 17.985 32.0123 17.91 31.8423 17.76C31.6723 17.6 31.5873 17.445 31.5873 17.295H31.5723C31.5823 17.255 31.5923 17.16 31.6023 17.01C31.6123 16.86 31.6373 16.78 31.6773 16.77V16.74C31.6873 16.73 31.7123 16.69 31.7523 16.62C31.7923 16.55 31.8323 16.475 31.8723 16.395C31.9223 16.315 31.9523 16.265 31.9623 16.245C31.9923 16.195 32.0723 16.1 32.2023 15.96C32.3323 15.81 32.4673 15.67 32.6073 15.54C32.7473 15.41 32.8373 15.345 32.8773 15.345C32.9373 15.255 33.0473 15.155 33.2073 15.045C33.3773 14.935 33.5473 14.83 33.7173 14.73C33.8973 14.63 34.0223 14.56 34.0923 14.52V14.505L34.1073 14.52H34.1223C34.1623 14.48 34.2373 14.44 34.3473 14.4C34.4673 14.35 34.5473 14.32 34.5873 14.31C34.6573 14.28 34.7273 14.26 34.7973 14.25C34.8673 14.24 34.9373 14.23 35.0073 14.22C35.0573 14.23 35.1073 14.235 35.1573 14.235C35.2173 14.235 35.2723 14.24 35.3223 14.25C35.4223 14.27 35.5323 14.325 35.6523 14.415C35.7723 14.495 35.8323 14.595 35.8323 14.715C35.8223 14.725 35.8123 14.74 35.8023 14.76C35.7923 14.78 35.7923 14.795 35.8023 14.805L35.7423 14.775C35.6823 14.665 35.5923 14.6 35.4723 14.58C35.3523 14.55 35.2373 14.535 35.1273 14.535C34.8573 14.535 34.5723 14.605 34.2723 14.745C33.9723 14.875 33.6773 15.05 33.3873 15.27C33.0973 15.49 32.8373 15.725 32.6073 15.975C32.3873 16.225 32.2223 16.465 32.1123 16.695L32.0673 16.875C32.0473 16.975 32.0173 17.07 31.9773 17.16C31.9373 17.25 31.9173 17.35 31.9173 17.46C31.9173 17.54 31.9273 17.6 31.9473 17.64C31.9673 17.67 32.0023 17.72 32.0523 17.79L32.0823 17.775V17.79L32.1123 17.76L32.1723 17.775C32.2423 17.735 32.3173 17.705 32.3973 17.685C32.4773 17.655 32.5423 17.615 32.5923 17.565L32.6223 17.535C32.6823 17.515 32.7373 17.48 32.7873 17.43C32.8373 17.38 32.8823 17.335 32.9223 17.295C33.0723 17.155 33.2223 17.015 33.3723 16.875C33.5223 16.735 33.6623 16.59 33.7923 16.44C33.8623 16.36 33.9523 16.26 34.0623 16.14C34.1723 16.02 34.2673 15.935 34.3473 15.885L34.3623 15.825C34.4423 15.795 34.5173 15.725 34.5873 15.615C34.6673 15.505 34.7423 15.4 34.8123 15.3C34.8923 15.19 34.9673 15.135 35.0373 15.135L35.0973 15.12C35.1773 15.12 35.2423 15.155 35.2923 15.225C35.3423 15.285 35.3673 15.35 35.3673 15.42C35.3673 15.5 35.3423 15.59 35.2923 15.69C35.2423 15.79 35.2073 15.88 35.1873 15.96C35.1373 16.17 35.1023 16.36 35.0823 16.53C35.0623 16.69 35.0523 16.875 35.0523 17.085C35.0523 17.215 35.0723 17.325 35.1123 17.415C35.1623 17.505 35.2323 17.6 35.3223 17.7H35.3973C35.5373 17.62 35.6373 17.535 35.6973 17.445C35.7573 17.355 35.8323 17.26 35.9223 17.16C35.9323 17.16 35.9423 17.155 35.9523 17.145C35.9623 17.135 35.9673 17.13 35.9673 17.13C35.9873 17.13 35.9973 17.14 35.9973 17.16C35.9973 17.2 35.9873 17.24 35.9673 17.28C35.9573 17.31 35.9473 17.35 35.9373 17.4C35.9173 17.51 35.8873 17.615 35.8473 17.715C35.8173 17.805 35.7223 17.85 35.5623 17.85C35.4723 17.85 35.3723 17.83 35.2623 17.79C35.1523 17.75 35.0623 17.695 34.9923 17.625C34.8423 17.455 34.7473 17.27 34.7073 17.07C34.6773 16.86 34.6623 16.645 34.6623 16.425V15.945H34.6323C34.5923 16.005 34.5473 16.065 34.4973 16.125C34.4473 16.185 34.3973 16.245 34.3473 16.305C34.3073 16.345 34.2573 16.39 34.1973 16.44C34.1473 16.48 34.1023 16.53 34.0623 16.59C34.0423 16.59 34.0023 16.625 33.9423 16.695C33.8923 16.755 33.8673 16.8 33.8673 16.83C33.7973 16.84 33.7173 16.9 33.6273 17.01C33.5473 17.12 33.4923 17.175 33.4623 17.175C33.4523 17.205 33.4173 17.255 33.3573 17.325C33.2973 17.385 33.2523 17.43 33.2223 17.46C33.1523 17.47 33.0923 17.505 33.0423 17.565C33.0023 17.625 32.9623 17.68 32.9223 17.73C32.8323 17.77 32.7323 17.825 32.6223 17.895C32.5123 17.955 32.4073 17.985 32.3073 17.985ZM39.185 18.765C39.075 18.725 38.95 18.645 38.81 18.525C38.68 18.415 38.615 18.295 38.615 18.165C38.615 17.975 38.725 17.79 38.945 17.61C39.175 17.43 39.455 17.265 39.785 17.115C40.115 16.955 40.445 16.82 40.775 16.71C41.115 16.59 41.4 16.495 41.63 16.425C41.86 16.345 41.98 16.3 41.99 16.29C42.08 16.27 42.165 16.25 42.245 16.23C42.335 16.21 42.425 16.19 42.515 16.17C42.435 16.06 42.33 15.965 42.2 15.885C42.08 15.795 41.975 15.72 41.885 15.66C41.785 15.6 41.685 15.535 41.585 15.465C41.495 15.395 41.4 15.33 41.3 15.27C41.02 15.1 40.775 14.95 40.565 14.82C40.355 14.69 40.165 14.475 39.995 14.175C39.925 14.065 39.86 13.93 39.8 13.77C39.75 13.6 39.725 13.45 39.725 13.32C39.725 13.04 39.84 12.785 40.07 12.555C40.3 12.315 40.57 12.115 40.88 11.955C41.19 11.785 41.455 11.665 41.675 11.595C41.765 11.565 41.85 11.535 41.93 11.505C42.01 11.465 42.1 11.44 42.2 11.43C42.28 11.41 42.36 11.375 42.44 11.325C42.53 11.275 42.615 11.245 42.695 11.235C42.835 11.195 42.97 11.17 43.1 11.16C43.23 11.14 43.36 11.115 43.49 11.085C43.57 11.065 43.65 11.06 43.73 11.07C43.82 11.07 43.895 11.055 43.955 11.025L43.985 11.01H44C44.04 11.01 44.08 11.015 44.12 11.025C44.16 11.025 44.2 11.025 44.24 11.025C44.28 11.025 44.32 11.02 44.36 11.01C44.41 10.99 44.455 10.98 44.495 10.98C44.545 10.98 44.595 10.99 44.645 11.01C44.705 11.02 44.76 11.025 44.81 11.025C44.86 11.025 44.925 11.045 45.005 11.085C45.095 11.115 45.16 11.14 45.2 11.16C45.32 11.21 45.42 11.3 45.5 11.43C45.59 11.56 45.635 11.69 45.635 11.82C45.635 11.95 45.595 12.05 45.515 12.12C45.435 12.18 45.35 12.25 45.26 12.33C45.17 12.41 45.09 12.5 45.02 12.6C44.95 12.7 44.88 12.805 44.81 12.915H44.765C44.785 12.785 44.835 12.66 44.915 12.54C45.005 12.42 45.09 12.3 45.17 12.18C45.25 12.06 45.29 11.93 45.29 11.79C45.29 11.6 45.21 11.49 45.05 11.46C44.9 11.43 44.755 11.415 44.615 11.415C44.475 11.415 44.335 11.425 44.195 11.445C44.065 11.465 43.93 11.485 43.79 11.505C43.4 11.545 43.03 11.62 42.68 11.73C42.34 11.84 41.995 11.98 41.645 12.15C41.515 12.22 41.375 12.3 41.225 12.39C41.085 12.47 40.955 12.535 40.835 12.585C40.765 12.615 40.7 12.64 40.64 12.66C40.52 12.8 40.385 12.955 40.235 13.125C40.085 13.295 40.01 13.48 40.01 13.68C40.01 13.9 40.11 14.105 40.31 14.295C40.51 14.485 40.76 14.675 41.06 14.865C41.36 15.055 41.655 15.255 41.945 15.465C42.235 15.665 42.47 15.89 42.65 16.14C42.77 16.12 42.89 16.1 43.01 16.08C43.14 16.06 43.265 16.05 43.385 16.05C43.675 16.05 43.905 16.135 44.075 16.305C44.245 16.475 44.33 16.705 44.33 16.995C44.33 17.225 44.28 17.375 44.18 17.445C44.09 17.505 43.96 17.58 43.79 17.67C43.72 17.71 43.65 17.76 43.58 17.82C43.51 17.88 43.435 17.915 43.355 17.925V17.91H43.34V17.895H43.355C43.455 17.815 43.57 17.715 43.7 17.595C43.83 17.475 43.945 17.345 44.045 17.205C44.155 17.065 44.21 16.935 44.21 16.815C44.21 16.675 44.15 16.58 44.03 16.53C43.91 16.47 43.775 16.435 43.625 16.425C43.475 16.405 43.355 16.395 43.265 16.395C43.195 16.395 43.12 16.4 43.04 16.41C42.97 16.41 42.895 16.415 42.815 16.425C42.825 16.435 42.83 16.445 42.83 16.455C42.83 16.465 42.835 16.475 42.845 16.485C42.875 16.555 42.89 16.63 42.89 16.71C42.89 16.83 42.855 16.96 42.785 17.1C42.645 17.38 42.44 17.61 42.17 17.79C41.91 17.97 41.625 18.11 41.315 18.21C41.005 18.31 40.7 18.385 40.4 18.435C40.36 18.445 40.32 18.45 40.28 18.45C40.24 18.45 40.2 18.45 40.16 18.45C39.93 18.45 39.7 18.42 39.47 18.36L39.5 18.315C39.55 18.325 39.595 18.33 39.635 18.33C39.685 18.34 39.73 18.345 39.77 18.345C39.82 18.345 39.88 18.335 39.95 18.315C40.02 18.305 40.08 18.295 40.13 18.285C40.21 18.235 40.36 18.175 40.58 18.105C40.8 18.035 41.005 17.96 41.195 17.88C41.395 17.8 41.505 17.725 41.525 17.655C41.525 17.625 41.53 17.61 41.54 17.61C41.66 17.54 41.805 17.445 41.975 17.325C42.145 17.205 42.295 17.07 42.425 16.92C42.565 16.77 42.635 16.62 42.635 16.47V16.44C42.035 16.52 41.48 16.655 40.97 16.845C40.78 16.915 40.535 17.02 40.235 17.16C39.945 17.3 39.675 17.465 39.425 17.655C39.175 17.835 39.01 18.025 38.93 18.225C38.93 18.235 38.925 18.245 38.915 18.255C38.915 18.275 38.915 18.295 38.915 18.315C38.915 18.385 38.94 18.465 38.99 18.555C39.04 18.655 39.105 18.705 39.185 18.705V18.765ZM45.9148 19.11C45.8648 19.11 45.7848 19.08 45.6748 19.02C45.5648 18.96 45.4898 18.91 45.4498 18.87C45.3798 18.79 45.3298 18.695 45.2998 18.585C45.2798 18.475 45.2698 18.37 45.2698 18.27C45.2698 17.94 45.3448 17.565 45.4948 17.145C45.6448 16.725 45.7998 16.37 45.9598 16.08C45.9798 16.04 46.0198 15.965 46.0798 15.855C46.1498 15.745 46.2148 15.635 46.2748 15.525C46.3348 15.415 46.3648 15.355 46.3648 15.345L46.0948 15.435L46.0048 15.42V15.435C45.9048 15.505 45.7748 15.555 45.6148 15.585C45.4548 15.615 45.3198 15.655 45.2098 15.705L44.7598 15.93H44.7298C44.6898 15.93 44.6548 15.91 44.6248 15.87C44.6048 15.82 44.5948 15.78 44.5948 15.75C44.5948 15.72 44.6498 15.685 44.7598 15.645C44.8698 15.595 44.9998 15.545 45.1498 15.495C45.3098 15.445 45.4548 15.4 45.5848 15.36C45.7248 15.32 45.8148 15.295 45.8548 15.285C45.9848 15.255 46.1048 15.22 46.2148 15.18H46.2298V15.165C46.2998 15.165 46.3748 15.145 46.4548 15.105C46.6448 14.825 46.8298 14.55 47.0098 14.28C47.1998 14 47.4148 13.745 47.6548 13.515L47.9848 13.2C48.0648 13.13 48.1248 13.07 48.1648 13.02C48.2048 12.97 48.2748 12.92 48.3748 12.87C48.4448 12.88 48.5398 12.915 48.6598 12.975C48.7898 13.035 48.8548 13.105 48.8548 13.185C48.8548 13.215 48.8048 13.265 48.7048 13.335C48.6148 13.405 48.5198 13.475 48.4198 13.545C48.3198 13.605 48.2498 13.65 48.2098 13.68L48.1048 13.71C47.9848 13.81 47.8748 13.915 47.7748 14.025C47.6748 14.135 47.5698 14.245 47.4598 14.355C47.3998 14.405 47.3498 14.47 47.3098 14.55C47.2698 14.63 47.2198 14.7 47.1598 14.76V14.82C47.1398 14.83 47.1048 14.86 47.0548 14.91C47.0148 14.95 46.9948 14.98 46.9948 15C47.1648 15.01 47.3448 15.025 47.5348 15.045C47.7248 15.065 47.8848 15.145 48.0148 15.285C47.9048 15.255 47.7998 15.23 47.6998 15.21C47.6098 15.18 47.5098 15.165 47.3998 15.165C47.1998 15.165 47.0148 15.195 46.8448 15.255C46.8448 15.255 46.8148 15.3 46.7548 15.39C46.6948 15.48 46.6298 15.57 46.5598 15.66C46.4998 15.74 46.4698 15.785 46.4698 15.795C46.4398 15.835 46.3798 15.935 46.2898 16.095C46.1998 16.245 46.1148 16.395 46.0348 16.545C45.9648 16.685 45.9248 16.76 45.9148 16.77C45.9148 16.82 45.8998 16.885 45.8698 16.965C45.8398 17.045 45.8148 17.11 45.7948 17.16L45.7798 17.175V17.19C45.7798 17.25 45.7648 17.315 45.7348 17.385C45.7048 17.455 45.6798 17.515 45.6598 17.565C45.5698 17.835 45.5248 18.115 45.5248 18.405C45.5248 18.485 45.5348 18.585 45.5548 18.705C45.5848 18.825 45.6448 18.91 45.7348 18.96C45.7548 18.97 45.7998 18.98 45.8698 18.99C45.9498 19 45.9898 19.02 45.9898 19.05C45.9898 19.09 45.9648 19.11 45.9148 19.11ZM48.0298 15.285C48.0198 15.285 48.0148 15.285 48.0148 15.285C48.0148 15.285 48.0198 15.285 48.0298 15.285ZM48.392 18.345C48.232 18.345 48.112 18.305 48.032 18.225C47.962 18.155 47.902 18.12 47.852 18.12C47.842 18.07 47.797 18.015 47.717 17.955C47.637 17.895 47.597 17.755 47.597 17.535C47.597 17.335 47.642 17.16 47.732 17.01C47.822 16.86 47.902 16.7 47.972 16.53C47.992 16.48 48.002 16.43 48.002 16.38C48.002 16.32 48.012 16.27 48.032 16.23C48.052 16.16 48.082 16.095 48.122 16.035C48.162 15.975 48.202 15.915 48.242 15.855C48.472 15.465 48.742 15.15 49.052 14.91C49.362 14.66 49.727 14.45 50.147 14.28H50.162C50.212 14.26 50.292 14.245 50.402 14.235C50.512 14.215 50.592 14.205 50.642 14.205C50.742 14.205 50.832 14.225 50.912 14.265C50.992 14.305 51.062 14.325 51.122 14.325L51.092 14.355C51.182 14.395 51.252 14.455 51.302 14.535C51.352 14.605 51.407 14.67 51.467 14.73C51.487 14.75 51.507 14.77 51.527 14.79C51.547 14.81 51.562 14.83 51.572 14.85C51.602 14.88 51.622 14.925 51.632 14.985C51.642 15.045 51.647 15.1 51.647 15.15C51.647 15.41 51.582 15.645 51.452 15.855C51.322 16.065 51.177 16.27 51.017 16.47C50.947 16.57 50.877 16.67 50.807 16.77C50.747 16.87 50.672 16.965 50.582 17.055C50.562 17.075 50.507 17.125 50.417 17.205C50.337 17.285 50.257 17.365 50.177 17.445C50.107 17.515 50.067 17.56 50.057 17.58C49.987 17.61 49.922 17.655 49.862 17.715C49.802 17.775 49.737 17.83 49.667 17.88C49.487 18.01 49.287 18.12 49.067 18.21C48.847 18.3 48.622 18.345 48.392 18.345ZM48.317 18.165C48.317 18.165 48.387 18.145 48.527 18.105C48.667 18.065 48.757 18.04 48.797 18.03C48.847 18.01 48.942 17.96 49.082 17.88C49.232 17.79 49.372 17.7 49.502 17.61C49.632 17.51 49.697 17.44 49.697 17.4C49.767 17.38 49.862 17.305 49.982 17.175C50.112 17.035 50.237 16.89 50.357 16.74C50.477 16.58 50.557 16.47 50.597 16.41C50.617 16.39 50.652 16.34 50.702 16.26C50.752 16.17 50.782 16.125 50.792 16.125C50.802 16.085 50.817 16.045 50.837 16.005C50.867 15.955 50.882 15.915 50.882 15.885C50.912 15.865 50.942 15.8 50.972 15.69C51.002 15.57 51.027 15.51 51.047 15.51L51.032 15.495C51.042 15.475 51.047 15.46 51.047 15.45C51.057 15.43 51.067 15.415 51.077 15.405C51.077 15.345 51.087 15.29 51.107 15.24C51.127 15.18 51.137 15.12 51.137 15.06C51.157 15.02 51.167 14.97 51.167 14.91C51.167 14.85 51.167 14.8 51.167 14.76L51.182 14.745V14.73C51.182 14.64 51.152 14.56 51.092 14.49C51.042 14.42 50.962 14.385 50.852 14.385C50.572 14.385 50.317 14.455 50.087 14.595C49.867 14.725 49.652 14.87 49.442 15.03C49.372 15.08 49.302 15.135 49.232 15.195C49.162 15.245 49.097 15.305 49.037 15.375C49.017 15.385 48.987 15.405 48.947 15.435C48.907 15.465 48.887 15.495 48.887 15.525C48.977 15.515 49.062 15.48 49.142 15.42C49.232 15.35 49.357 15.315 49.517 15.315C49.567 15.315 49.662 15.36 49.802 15.45C49.952 15.54 50.027 15.61 50.027 15.66V15.69C49.967 15.67 49.922 15.65 49.892 15.63C49.872 15.61 49.822 15.6 49.742 15.6C49.542 15.6 49.337 15.68 49.127 15.84C48.927 15.99 48.762 16.135 48.632 16.275C48.572 16.325 48.512 16.38 48.452 16.44C48.402 16.5 48.357 16.565 48.317 16.635C48.287 16.705 48.272 16.785 48.272 16.875C48.292 16.865 48.312 16.88 48.332 16.92C48.352 16.95 48.362 16.975 48.362 16.995H48.317C48.267 16.995 48.227 16.985 48.197 16.965C48.177 16.935 48.157 16.92 48.137 16.92C48.097 16.95 48.052 17.03 48.002 17.16C47.952 17.29 47.917 17.355 47.897 17.355C47.887 17.395 47.877 17.44 47.867 17.49C47.867 17.53 47.867 17.57 47.867 17.61C47.867 17.77 47.897 17.9 47.957 18C48.017 18.11 48.137 18.165 48.317 18.165ZM51.5207 21.735C51.5107 21.735 51.4907 21.73 51.4607 21.72C51.4307 21.72 51.4107 21.71 51.4007 21.69C51.2707 21.69 51.1707 21.635 51.1007 21.525C51.0307 21.415 50.9807 21.29 50.9507 21.15C50.9207 21.01 50.9057 20.89 50.9057 20.79C50.9057 20.71 50.9157 20.62 50.9357 20.52C50.9557 20.43 50.9707 20.345 50.9807 20.265C51.0207 20.215 51.0507 20.15 51.0707 20.07C51.0807 19.99 51.0907 19.92 51.1007 19.86C51.1407 19.73 51.1857 19.605 51.2357 19.485C51.2857 19.365 51.3407 19.25 51.4007 19.14C51.4207 19.08 51.4407 19.04 51.4607 19.02V18.975C51.5107 18.915 51.5457 18.85 51.5657 18.78C51.5857 18.71 51.6107 18.64 51.6407 18.57C51.6907 18.46 51.7457 18.35 51.8057 18.24C51.8657 18.14 51.9257 18.04 51.9857 17.94C52.0657 17.81 52.1457 17.685 52.2257 17.565C52.3057 17.435 52.3807 17.305 52.4507 17.175C52.4907 17.125 52.5357 17.07 52.5857 17.01C52.6357 16.94 52.6707 16.88 52.6907 16.83C52.7807 16.65 52.9057 16.435 53.0657 16.185C53.2257 15.935 53.3707 15.725 53.5007 15.555L53.4857 15.525L53.5307 15.465C53.5507 15.385 53.5957 15.28 53.6657 15.15C53.7357 15.02 53.7707 14.92 53.7707 14.85V14.835H53.7557C53.6657 14.835 53.5307 14.87 53.3507 14.94C53.1807 15 53.0007 15.08 52.8107 15.18C52.6207 15.28 52.4607 15.385 52.3307 15.495C52.2007 15.605 52.1357 15.705 52.1357 15.795C52.1357 15.855 52.1557 15.905 52.1957 15.945C52.2457 15.975 52.2907 16.005 52.3307 16.035V16.05C52.3207 16.05 52.3157 16.055 52.3157 16.065C52.2257 16.045 52.0957 16.01 51.9257 15.96C51.7557 15.9 51.6707 15.81 51.6707 15.69C51.6707 15.6 51.7457 15.5 51.8957 15.39C52.0457 15.27 52.2257 15.155 52.4357 15.045C52.6457 14.935 52.8457 14.845 53.0357 14.775C53.2257 14.695 53.3657 14.65 53.4557 14.64C53.4857 14.63 53.5457 14.62 53.6357 14.61C53.7357 14.59 53.8307 14.575 53.9207 14.565C54.0107 14.545 54.0557 14.535 54.0557 14.535C54.1357 14.435 54.2207 14.34 54.3107 14.25C54.4007 14.16 54.4807 14.065 54.5507 13.965H54.5657L54.5807 13.935L54.6557 13.95L54.6707 13.935C54.7507 13.935 54.8357 13.98 54.9257 14.07C55.0257 14.16 55.0757 14.245 55.0757 14.325C55.0757 14.395 55.0307 14.445 54.9407 14.475C54.8507 14.505 54.8057 14.555 54.8057 14.625C54.8057 14.665 54.8707 14.715 55.0007 14.775C55.1307 14.835 55.2607 14.93 55.3907 15.06C55.5207 15.18 55.5857 15.365 55.5857 15.615C55.5857 15.685 55.5757 15.755 55.5557 15.825C55.5457 15.885 55.5457 15.955 55.5557 16.035L55.5257 16.065C55.5357 16.065 55.5407 16.07 55.5407 16.08C55.5707 16.08 55.6007 16.08 55.6307 16.08C55.6707 16.07 55.7057 16.065 55.7357 16.065C55.7857 16.065 55.8707 16.085 55.9907 16.125C56.1107 16.155 56.1907 16.185 56.2307 16.215C56.2607 16.235 56.2807 16.265 56.2907 16.305C56.3107 16.335 56.3357 16.36 56.3657 16.38V16.395L56.3207 16.41C56.2607 16.39 56.2057 16.37 56.1557 16.35C56.1157 16.32 56.0657 16.305 56.0057 16.305C55.9657 16.305 55.9207 16.315 55.8707 16.335C55.8307 16.345 55.7907 16.36 55.7507 16.38C55.6107 16.42 55.4757 16.475 55.3457 16.545C55.2257 16.615 55.1507 16.735 55.1207 16.905C55.0807 16.935 55.0507 16.955 55.0307 16.965C55.0207 16.975 55.0107 17.01 55.0007 17.07C54.9307 17.14 54.8707 17.215 54.8207 17.295C54.7807 17.365 54.7307 17.435 54.6707 17.505C54.6107 17.575 54.5457 17.64 54.4757 17.7C54.4157 17.76 54.3557 17.825 54.2957 17.895C54.2557 17.935 54.2207 17.97 54.1907 18C54.1607 18.04 54.1307 18.08 54.1007 18.12C54.0707 18.16 54.0057 18.205 53.9057 18.255C53.8057 18.315 53.7007 18.365 53.5907 18.405C53.4907 18.455 53.4157 18.48 53.3657 18.48C53.2757 18.48 53.1807 18.43 53.0807 18.33C52.9907 18.24 52.9457 18.145 52.9457 18.045C52.9457 17.825 53.0457 17.61 53.2457 17.4C53.4457 17.18 53.6757 16.985 53.9357 16.815C54.2057 16.635 54.4257 16.505 54.5957 16.425C54.6457 16.405 54.7457 16.365 54.8957 16.305C55.0557 16.245 55.1457 16.205 55.1657 16.185C55.2257 16.125 55.2657 16.03 55.2857 15.9C55.3157 15.77 55.3307 15.66 55.3307 15.57C55.3307 15.39 55.2907 15.23 55.2107 15.09C55.1307 14.95 54.9807 14.88 54.7607 14.88C54.6107 14.88 54.4757 14.93 54.3557 15.03C54.3057 15.07 54.2307 15.15 54.1307 15.27C54.0407 15.38 53.9507 15.5 53.8607 15.63C53.7707 15.75 53.7007 15.845 53.6507 15.915C53.3507 16.345 53.0657 16.785 52.7957 17.235C52.5257 17.675 52.2857 18.135 52.0757 18.615C52.0657 18.625 52.0507 18.645 52.0307 18.675C52.0207 18.705 52.0057 18.725 51.9857 18.735C51.9857 18.745 51.9607 18.81 51.9107 18.93C51.8607 19.06 51.8107 19.19 51.7607 19.32C51.7107 19.45 51.6807 19.53 51.6707 19.56C51.6607 19.58 51.6457 19.6 51.6257 19.62C51.6157 19.64 51.6057 19.66 51.5957 19.68C51.5857 19.75 51.5657 19.815 51.5357 19.875C51.5157 19.935 51.4957 20 51.4757 20.07C51.4357 20.24 51.3907 20.42 51.3407 20.61C51.2907 20.81 51.2657 21 51.2657 21.18C51.2657 21.23 51.2707 21.285 51.2807 21.345C51.2907 21.415 51.3057 21.475 51.3257 21.525C51.3457 21.565 51.3907 21.6 51.4607 21.63C51.5307 21.66 51.5657 21.685 51.5657 21.705C51.5657 21.725 51.5507 21.735 51.5207 21.735ZM53.3357 18.015C53.3757 18.015 53.4157 17.995 53.4557 17.955C53.6857 17.815 53.8707 17.7 54.0107 17.61C54.1507 17.51 54.2807 17.4 54.4007 17.28C54.5307 17.15 54.6757 16.965 54.8357 16.725C54.8557 16.705 54.8757 16.68 54.8957 16.65C54.9157 16.62 54.9257 16.59 54.9257 16.56C54.9257 16.54 54.9157 16.52 54.8957 16.5C54.7657 16.6 54.6257 16.69 54.4757 16.77C54.3357 16.85 54.2007 16.945 54.0707 17.055C53.9807 17.125 53.8957 17.21 53.8157 17.31C53.7357 17.4 53.6457 17.48 53.5457 17.55C53.5457 17.58 53.5057 17.655 53.4257 17.775C53.3457 17.895 53.2957 17.965 53.2757 17.985C53.2957 18.005 53.3157 18.015 53.3357 18.015ZM58.3525 14.265C58.3125 14.265 58.2625 14.24 58.2025 14.19C58.1425 14.14 58.1125 14.095 58.1125 14.055C58.1125 14.035 58.1475 13.99 58.2175 13.92C58.2875 13.84 58.3625 13.765 58.4425 13.695C58.5325 13.615 58.5875 13.565 58.6075 13.545C58.6875 13.565 58.7275 13.61 58.7275 13.68C58.7275 13.72 58.7025 13.79 58.6525 13.89C58.6125 13.98 58.5625 14.065 58.5025 14.145C58.4525 14.225 58.4025 14.265 58.3525 14.265ZM56.7625 18.15C56.7325 18.15 56.7025 18.14 56.6725 18.12C56.6525 18.1 56.6275 18.085 56.5975 18.075C56.5275 18.015 56.4775 17.965 56.4475 17.925C56.4175 17.885 56.4025 17.815 56.4025 17.715C56.4025 17.395 56.4775 17.09 56.6275 16.8C56.7775 16.5 56.9175 16.215 57.0475 15.945C57.0675 15.925 57.0725 15.905 57.0625 15.885C57.0525 15.855 57.0475 15.83 57.0475 15.81C57.0475 15.72 57.0825 15.62 57.1525 15.51C57.2325 15.39 57.3225 15.275 57.4225 15.165C57.5225 15.055 57.6025 14.975 57.6625 14.925C57.7225 14.925 57.8125 14.935 57.9325 14.955C58.0525 14.965 58.1125 15.01 58.1125 15.09C58.1125 15.1 58.0625 15.16 57.9625 15.27C57.8625 15.38 57.8025 15.45 57.7825 15.48C57.6525 15.68 57.4975 15.92 57.3175 16.2C57.1475 16.47 56.9975 16.75 56.8675 17.04C56.7375 17.33 56.6725 17.605 56.6725 17.865C56.7925 17.845 56.9175 17.775 57.0475 17.655C57.1875 17.525 57.2925 17.415 57.3625 17.325H57.3775V17.34C57.3775 17.38 57.3575 17.42 57.3175 17.46C57.2775 17.5 57.2475 17.535 57.2275 17.565C57.1875 17.635 57.1225 17.75 57.0325 17.91C56.9525 18.07 56.8625 18.15 56.7625 18.15ZM58.447 17.79C58.387 17.79 58.317 17.76 58.237 17.7C58.167 17.64 58.132 17.58 58.132 17.52C58.132 17.33 58.182 17.1 58.282 16.83C58.382 16.56 58.502 16.28 58.642 15.99C58.792 15.7 58.937 15.425 59.077 15.165C59.227 14.905 59.352 14.69 59.452 14.52C59.502 14.43 59.542 14.335 59.572 14.235C59.612 14.135 59.667 14.045 59.737 13.965C59.817 13.975 59.907 14 60.007 14.04C60.117 14.08 60.172 14.155 60.172 14.265C60.172 14.345 60.122 14.435 60.022 14.535C59.932 14.625 59.862 14.7 59.812 14.76C59.592 15.01 59.392 15.28 59.212 15.57C59.042 15.86 58.887 16.155 58.747 16.455C58.717 16.515 58.692 16.575 58.672 16.635C58.652 16.685 58.632 16.735 58.612 16.785C58.592 16.835 58.567 16.885 58.537 16.935C58.507 16.975 58.492 17.02 58.492 17.07C58.492 17.09 58.497 17.115 58.507 17.145C58.517 17.175 58.537 17.19 58.567 17.19C58.647 17.11 58.772 16.975 58.942 16.785C59.112 16.585 59.297 16.38 59.497 16.17C59.697 15.95 59.877 15.76 60.037 15.6C60.207 15.44 60.322 15.345 60.382 15.315C60.402 15.305 60.422 15.3 60.442 15.3C60.462 15.29 60.482 15.285 60.502 15.285C60.662 15.285 60.787 15.36 60.877 15.51C60.967 15.65 61.012 15.79 61.012 15.93C61.012 16.09 60.997 16.245 60.967 16.395C60.937 16.545 60.922 16.695 60.922 16.845C60.922 16.965 60.947 17.12 60.997 17.31C61.047 17.5 61.152 17.595 61.312 17.595C61.352 17.575 61.397 17.555 61.447 17.535C61.497 17.515 61.542 17.505 61.582 17.505C61.612 17.505 61.627 17.525 61.627 17.565C61.627 17.615 61.597 17.655 61.537 17.685C61.487 17.715 61.442 17.73 61.402 17.73C61.252 17.73 61.097 17.665 60.937 17.535C60.777 17.395 60.677 17.255 60.637 17.115C60.597 16.965 60.567 16.815 60.547 16.665C60.537 16.505 60.532 16.35 60.532 16.2C60.532 16.13 60.537 16.03 60.547 15.9C60.567 15.76 60.577 15.67 60.577 15.63C60.517 15.63 60.437 15.675 60.337 15.765C60.237 15.845 60.142 15.935 60.052 16.035C59.962 16.125 59.897 16.195 59.857 16.245C59.837 16.265 59.807 16.285 59.767 16.305C59.737 16.325 59.707 16.35 59.677 16.38C59.637 16.43 59.592 16.49 59.542 16.56C59.492 16.62 59.442 16.675 59.392 16.725C59.372 16.745 59.327 16.78 59.257 16.83C59.197 16.88 59.157 16.92 59.137 16.95C59.087 17.05 59.022 17.145 58.942 17.235C58.862 17.325 58.787 17.42 58.717 17.52C58.697 17.55 58.677 17.59 58.657 17.64C58.637 17.68 58.612 17.71 58.582 17.73C58.552 17.77 58.507 17.79 58.447 17.79ZM62.8417 18.165C62.6717 18.165 62.4817 18.12 62.2717 18.03C62.0717 17.94 61.9267 17.815 61.8367 17.655C61.7967 17.565 61.7767 17.455 61.7767 17.325C61.7767 17.135 61.7917 16.985 61.8217 16.875C61.8517 16.755 61.8917 16.645 61.9417 16.545C62.0017 16.435 62.0667 16.3 62.1367 16.14C62.1467 16.12 62.1817 16.075 62.2417 16.005C62.3117 15.935 62.3817 15.865 62.4517 15.795C62.5317 15.715 62.5817 15.66 62.6017 15.63L62.7517 15.435C62.7817 15.385 62.8167 15.36 62.8567 15.36C62.9067 15.35 62.9467 15.335 62.9767 15.315C63.0567 15.175 63.1667 15.055 63.3067 14.955C63.3667 14.915 63.4817 14.855 63.6517 14.775C63.8217 14.695 63.9367 14.655 63.9967 14.655C64.0467 14.655 64.0917 14.665 64.1317 14.685C64.1717 14.705 64.2117 14.715 64.2517 14.715L64.2817 14.7C64.3017 14.77 64.3467 14.82 64.4167 14.85C64.4967 14.88 64.5367 14.95 64.5367 15.06C64.5367 15.09 64.5167 15.145 64.4767 15.225C64.4367 15.305 64.3917 15.385 64.3417 15.465C64.3017 15.535 64.2667 15.57 64.2367 15.57C64.2467 15.51 64.2617 15.455 64.2817 15.405C64.3017 15.345 64.3117 15.285 64.3117 15.225C64.3117 15.175 64.2967 15.125 64.2667 15.075C64.2367 15.015 64.1917 14.985 64.1317 14.985C64.0117 14.985 63.8667 15.045 63.6967 15.165C63.5267 15.285 63.3667 15.425 63.2167 15.585C63.0667 15.735 62.9517 15.855 62.8717 15.945C62.7217 16.115 62.5717 16.29 62.4217 16.47C62.2817 16.65 62.1817 16.85 62.1217 17.07C62.1017 17.15 62.0817 17.225 62.0617 17.295C62.0517 17.365 62.0467 17.445 62.0467 17.535C62.0667 17.565 62.0767 17.6 62.0767 17.64C62.0767 17.67 62.0867 17.705 62.1067 17.745C62.1567 17.825 62.2217 17.885 62.3017 17.925C62.3817 17.955 62.4667 17.97 62.5567 17.97C62.7367 17.97 62.9017 17.935 63.0517 17.865C63.2017 17.795 63.3217 17.76 63.4117 17.76C63.4817 17.71 63.5517 17.67 63.6217 17.64C63.6917 17.6 63.7617 17.56 63.8317 17.52C63.8817 17.52 63.9467 17.49 64.0267 17.43C64.1167 17.36 64.1817 17.315 64.2217 17.295C64.4417 17.165 64.6517 17.035 64.8517 16.905C65.0517 16.775 65.2517 16.63 65.4517 16.47C65.4917 16.44 65.5567 16.385 65.6467 16.305C65.7467 16.225 65.8167 16.18 65.8567 16.17C65.8467 16.17 65.8467 16.165 65.8567 16.155C65.8867 16.165 65.9017 16.195 65.9017 16.245C65.9017 16.345 65.8217 16.45 65.6617 16.56C65.5017 16.66 65.3867 16.735 65.3167 16.785C65.2867 16.815 65.2567 16.855 65.2267 16.905C65.1967 16.955 65.1567 16.98 65.1067 16.98L65.0917 17.025C65.0217 17.065 64.9267 17.125 64.8067 17.205C64.6967 17.285 64.6317 17.33 64.6117 17.34C64.5417 17.36 64.4817 17.39 64.4317 17.43C64.3817 17.46 64.3267 17.5 64.2667 17.55C64.1867 17.6 64.1067 17.66 64.0267 17.73C63.9567 17.8 63.8717 17.835 63.7717 17.835C63.7717 17.845 63.7667 17.85 63.7567 17.85C63.7467 17.91 63.7067 17.95 63.6367 17.97C63.5667 17.98 63.5117 17.995 63.4717 18.015C63.3717 18.075 63.2717 18.115 63.1717 18.135C63.0817 18.155 62.9717 18.165 62.8417 18.165ZM66.1064 18.405C66.0164 18.405 65.9314 18.385 65.8514 18.345C65.7714 18.305 65.7314 18.235 65.7314 18.135C65.7314 17.945 65.7664 17.71 65.8364 17.43C65.9164 17.15 66.0064 16.87 66.1064 16.59C66.2064 16.3 66.2914 16.04 66.3614 15.81C66.4414 15.57 66.4814 15.4 66.4814 15.3V15.285H66.4064C66.2864 15.285 66.1614 15.245 66.0314 15.165C65.9114 15.075 65.8514 14.965 65.8514 14.835C65.8514 14.705 65.9014 14.59 66.0014 14.49C66.1014 14.39 66.1964 14.305 66.2864 14.235C66.3264 14.215 66.3614 14.19 66.3914 14.16C66.4314 14.12 66.4714 14.1 66.5114 14.1L66.6164 14.055V14.07C66.6164 14.08 66.5764 14.13 66.4964 14.22C66.4164 14.3 66.3664 14.35 66.3464 14.37C66.3064 14.43 66.2614 14.53 66.2114 14.67C66.1714 14.81 66.1514 14.915 66.1514 14.985C66.1514 15.045 66.1714 15.08 66.2114 15.09C66.2514 15.1 66.2914 15.105 66.3314 15.105C66.3714 15.105 66.4214 15.085 66.4814 15.045C66.5414 15.005 66.5814 14.995 66.6014 15.015C66.6014 15.005 66.6264 14.95 66.6764 14.85C66.7364 14.75 66.7714 14.695 66.7814 14.685V14.625C66.8214 14.535 66.8614 14.435 66.9014 14.325C66.9414 14.215 66.9964 14.12 67.0664 14.04V14.025C67.1164 13.915 67.1864 13.765 67.2764 13.575C67.3664 13.385 67.4664 13.18 67.5764 12.96C67.6864 12.74 67.7964 12.54 67.9064 12.36C68.0164 12.18 68.1064 12.055 68.1764 11.985C68.1764 11.965 68.2164 11.905 68.2964 11.805C68.3764 11.695 68.4264 11.625 68.4464 11.595C68.5464 11.445 68.6964 11.27 68.8964 11.07C69.0964 10.87 69.3064 10.685 69.5264 10.515C69.7464 10.335 69.9314 10.22 70.0814 10.17L70.2914 10.095C70.4314 10.135 70.5564 10.195 70.6664 10.275C70.7764 10.345 70.8314 10.46 70.8314 10.62C70.8314 10.81 70.7714 11.035 70.6514 11.295C70.5314 11.555 70.3914 11.805 70.2314 12.045C70.0714 12.285 69.9364 12.48 69.8264 12.63C69.7564 12.73 69.6764 12.825 69.5864 12.915C69.5064 12.995 69.4314 13.09 69.3614 13.2C69.2914 13.24 69.2314 13.295 69.1814 13.365C69.1314 13.425 69.0814 13.48 69.0314 13.53C68.9714 13.59 68.8664 13.69 68.7164 13.83C68.5664 13.97 68.3964 14.115 68.2064 14.265C68.0264 14.415 67.8564 14.55 67.6964 14.67C67.5464 14.78 67.4414 14.84 67.3814 14.85L67.3664 14.865C67.2964 14.935 67.2214 14.985 67.1414 15.015C67.0614 15.035 66.9864 15.07 66.9164 15.12C66.8764 15.16 66.8314 15.245 66.7814 15.375C66.7314 15.495 66.6864 15.625 66.6464 15.765C66.6064 15.895 66.5714 15.995 66.5414 16.065C66.5014 16.175 66.4664 16.295 66.4364 16.425C66.4164 16.545 66.3814 16.655 66.3314 16.755L66.2414 17.07C66.2314 17.11 66.2114 17.195 66.1814 17.325C66.1514 17.445 66.1264 17.56 66.1064 17.67C66.0964 17.78 66.0964 17.835 66.1064 17.835C66.1264 17.825 66.2164 17.725 66.3764 17.535C66.5464 17.345 66.7564 17.11 67.0064 16.83C67.2564 16.54 67.5114 16.255 67.7714 15.975C68.0414 15.695 68.2814 15.455 68.4914 15.255C68.7014 15.055 68.8464 14.95 68.9264 14.94H69.0014C69.1414 14.94 69.2514 14.96 69.3314 15C69.4114 15.03 69.4364 15.14 69.4064 15.33C69.2964 15.7 69.1514 16.07 68.9714 16.44C68.8014 16.8 68.7164 17.175 68.7164 17.565C68.7164 17.615 68.7214 17.695 68.7314 17.805C68.7514 17.915 68.7814 18.01 68.8214 18.09C68.8714 18.18 68.9314 18.225 69.0014 18.225C69.1314 18.225 69.2664 18.155 69.4064 18.015C69.5564 17.875 69.7014 17.72 69.8414 17.55C69.9814 17.38 70.1014 17.255 70.2014 17.175V17.34C70.1814 17.37 70.1614 17.405 70.1414 17.445C70.1214 17.485 70.1014 17.525 70.0814 17.565C70.0114 17.665 69.9014 17.795 69.7514 17.955C69.6114 18.115 69.4914 18.235 69.3914 18.315C69.3614 18.335 69.3164 18.35 69.2564 18.36C69.1964 18.37 69.1464 18.375 69.1064 18.375C69.0564 18.375 69.0114 18.365 68.9714 18.345C68.9314 18.325 68.8864 18.305 68.8364 18.285C68.4964 18.125 68.3264 17.855 68.3264 17.475C68.3264 17.285 68.3314 17.11 68.3414 16.95C68.3614 16.79 68.3964 16.62 68.4464 16.44C68.4964 16.27 68.5364 16.1 68.5664 15.93C68.6064 15.76 68.6464 15.59 68.6864 15.42L68.2064 15.885C68.1564 15.925 68.1114 15.98 68.0714 16.05C68.0414 16.11 68.0014 16.165 67.9514 16.215C67.9014 16.285 67.8414 16.345 67.7714 16.395C67.7014 16.445 67.6364 16.505 67.5764 16.575C67.4864 16.665 67.4014 16.77 67.3214 16.89C67.2514 17 67.1714 17.1 67.0814 17.19C67.0114 17.26 66.9414 17.33 66.8714 17.4C66.8114 17.47 66.7514 17.545 66.6914 17.625C66.6514 17.675 66.5964 17.76 66.5264 17.88C66.4564 17.99 66.3814 18.1 66.3014 18.21C66.2314 18.32 66.1664 18.385 66.1064 18.405ZM66.9764 14.82H67.0214C67.7314 14.38 68.3964 13.84 69.0164 13.2C69.6364 12.55 70.1064 11.835 70.4264 11.055C70.4464 10.985 70.4514 10.935 70.4414 10.905C70.4414 10.875 70.4414 10.825 70.4414 10.755C70.4414 10.725 70.4114 10.715 70.3514 10.725C70.3014 10.725 70.2614 10.72 70.2314 10.71C70.1614 10.75 70.0714 10.795 69.9614 10.845C69.8514 10.895 69.7664 10.945 69.7064 10.995C69.6864 11.005 69.6714 11.02 69.6614 11.04C69.6614 11.06 69.6564 11.08 69.6464 11.1L69.4514 11.28C69.4214 11.31 69.3864 11.34 69.3464 11.37C69.3164 11.39 69.2864 11.41 69.2564 11.43C69.2164 11.47 69.1814 11.51 69.1514 11.55C69.1314 11.58 69.1014 11.615 69.0614 11.655C69.0214 11.695 68.9814 11.73 68.9414 11.76C68.9114 11.79 68.8714 11.825 68.8214 11.865C68.7914 11.885 68.7314 11.95 68.6414 12.06C68.5614 12.17 68.4664 12.3 68.3564 12.45C68.2564 12.59 68.1614 12.72 68.0714 12.84C67.9914 12.96 67.9414 13.04 67.9214 13.08C67.9114 13.09 67.8964 13.11 67.8764 13.14C67.8664 13.17 67.8514 13.19 67.8314 13.2C67.8314 13.25 67.8164 13.275 67.7864 13.275L67.8014 13.335H67.7564C67.7464 13.375 67.7114 13.445 67.6514 13.545C67.5914 13.635 67.5414 13.68 67.5014 13.68C67.5014 13.69 67.5014 13.695 67.5014 13.695C67.5114 13.695 67.5164 13.695 67.5164 13.695V13.71C67.5164 13.72 67.4914 13.78 67.4414 13.89C67.3914 14 67.3314 14.125 67.2614 14.265C67.1914 14.405 67.1264 14.53 67.0664 14.64C67.0164 14.74 66.9864 14.8 66.9764 14.82ZM70.6928 18.135C70.5328 18.135 70.4128 18.08 70.3328 17.97C70.2528 17.85 70.2128 17.72 70.2128 17.58C70.2128 17.36 70.2678 17.1 70.3778 16.8C70.4878 16.5 70.5878 16.245 70.6778 16.035C70.7078 15.975 70.7428 15.915 70.7828 15.855C70.8228 15.785 70.8428 15.715 70.8428 15.645C70.8828 15.615 70.9278 15.54 70.9778 15.42C71.0278 15.3 71.0578 15.235 71.0678 15.225V15.21C71.0278 15.22 70.9928 15.245 70.9628 15.285C70.9328 15.315 70.8928 15.34 70.8428 15.36H70.8278C70.8178 15.35 70.8128 15.345 70.8128 15.345C70.8128 15.335 70.8128 15.33 70.8128 15.33C70.8128 15.3 70.8228 15.285 70.8428 15.285C70.8628 15.245 70.8928 15.215 70.9328 15.195C70.9728 15.165 71.0028 15.13 71.0228 15.09C71.0928 15.01 71.1528 14.93 71.2028 14.85C71.2628 14.77 71.3328 14.695 71.4128 14.625C71.4728 14.635 71.5678 14.665 71.6978 14.715C71.8278 14.755 71.8928 14.815 71.8928 14.895C71.8928 14.955 71.8478 15.045 71.7578 15.165C71.6778 15.285 71.5878 15.405 71.4878 15.525C71.3978 15.645 71.3328 15.735 71.2928 15.795C71.1928 15.945 71.1178 16.07 71.0678 16.17C71.0178 16.27 70.9728 16.37 70.9328 16.47C70.8928 16.57 70.8378 16.7 70.7678 16.86C70.7178 16.97 70.6678 17.085 70.6178 17.205C70.5678 17.325 70.5428 17.45 70.5428 17.58V17.715C70.5428 17.765 70.5478 17.82 70.5578 17.88C70.5678 17.93 70.5928 17.955 70.6328 17.955C70.6728 17.955 70.7178 17.94 70.7678 17.91C70.8278 17.88 70.8728 17.85 70.9028 17.82C71.1028 17.65 71.2878 17.465 71.4578 17.265C71.6378 17.065 71.8128 16.87 71.9828 16.68C72.2028 16.45 72.4228 16.22 72.6428 15.99C72.8728 15.75 73.0878 15.505 73.2878 15.255C73.3278 15.215 73.3778 15.145 73.4378 15.045C73.4978 14.945 73.5578 14.895 73.6178 14.895H73.6478C73.6978 14.895 73.7628 14.92 73.8428 14.97C73.9328 15.01 73.9778 15.06 73.9778 15.12C73.9778 15.25 73.9478 15.34 73.8878 15.39C73.8378 15.44 73.7928 15.52 73.7528 15.63C73.7428 15.68 73.7228 15.73 73.6928 15.78C73.6728 15.82 73.6478 15.865 73.6178 15.915C73.5278 16.065 73.4528 16.28 73.3928 16.56C73.3428 16.84 73.3178 17.065 73.3178 17.235V17.37C73.3178 17.44 73.3228 17.515 73.3328 17.595C73.3428 17.665 73.3678 17.71 73.4078 17.73C73.4978 17.72 73.5728 17.665 73.6328 17.565C73.7028 17.465 73.7628 17.37 73.8128 17.28C73.8728 17.18 73.9278 17.13 73.9778 17.13V17.19C73.9778 17.24 73.9628 17.285 73.9328 17.325C73.9128 17.365 73.8928 17.41 73.8728 17.46C73.8328 17.57 73.7878 17.68 73.7378 17.79C73.6978 17.89 73.5978 17.94 73.4378 17.94C73.2378 17.94 73.1028 17.85 73.0328 17.67C72.9628 17.48 72.9278 17.305 72.9278 17.145C72.9278 16.955 72.9478 16.745 72.9878 16.515C73.0378 16.275 73.0978 16.07 73.1678 15.9C73.1778 15.88 73.1878 15.86 73.1978 15.84C73.2078 15.82 73.2078 15.8 73.1978 15.78H73.1678C73.1078 15.78 73.0428 15.825 72.9728 15.915C72.9028 15.995 72.8378 16.08 72.7778 16.17C72.7178 16.25 72.6578 16.3 72.5978 16.32V16.335L72.4778 16.44C72.3778 16.62 72.2528 16.79 72.1028 16.95C71.9528 17.11 71.8078 17.265 71.6678 17.415C71.5478 17.545 71.4028 17.7 71.2328 17.88C71.0728 18.05 70.8928 18.135 70.6928 18.135ZM79.0879 21.405C78.8279 21.405 78.5729 21.3 78.3229 21.09C78.0729 20.88 77.8329 20.62 77.6029 20.31C77.3829 20 77.1879 19.685 77.0179 19.365C76.8479 19.055 76.7079 18.8 76.5979 18.6C76.4579 18.32 76.3229 18 76.1929 17.64C76.0629 17.27 75.9579 16.93 75.8779 16.62C75.8679 16.58 75.8479 16.505 75.8179 16.395C75.7979 16.275 75.7629 16.215 75.7129 16.215C75.6829 16.215 75.6679 16.23 75.6679 16.26C75.6279 16.27 75.5979 16.3 75.5779 16.35C75.5579 16.39 75.5429 16.43 75.5329 16.47C75.4829 16.47 75.4229 16.52 75.3529 16.62C75.2929 16.72 75.2329 16.825 75.1729 16.935C75.1129 17.035 75.0629 17.085 75.0229 17.085C75.0129 17.115 74.9979 17.14 74.9779 17.16C74.9679 17.17 74.9529 17.185 74.9329 17.205C74.9129 17.225 74.8929 17.26 74.8729 17.31C74.8629 17.35 74.8479 17.385 74.8279 17.415C74.7879 17.475 74.7429 17.535 74.6929 17.595C74.6529 17.655 74.6129 17.72 74.5729 17.79C74.5529 17.83 74.5379 17.89 74.5279 17.97C74.5279 18.04 74.5029 18.09 74.4529 18.12C74.4429 18.13 74.4229 18.135 74.3929 18.135C74.3029 18.135 74.2229 18.1 74.1529 18.03C74.0829 17.97 74.0479 17.895 74.0479 17.805C74.0479 17.595 74.1029 17.39 74.2129 17.19C74.3229 16.98 74.3779 16.82 74.3779 16.71C74.3879 16.69 74.4129 16.635 74.4529 16.545C74.5029 16.445 74.5479 16.35 74.5879 16.26C74.6279 16.16 74.6479 16.1 74.6479 16.08C74.9779 15.3 75.3379 14.585 75.7279 13.935C76.1179 13.275 76.5779 12.61 77.1079 11.94C77.1279 11.92 77.1429 11.905 77.1529 11.895C77.1629 11.875 77.1779 11.86 77.1979 11.85V11.82C77.3679 11.64 77.5529 11.435 77.7529 11.205C77.9529 10.965 78.1579 10.79 78.3679 10.68C78.4279 10.7 78.4979 10.725 78.5779 10.755C78.6579 10.785 78.7129 10.83 78.7429 10.89C78.8529 11.05 78.9079 11.225 78.9079 11.415C78.9079 11.485 78.9029 11.555 78.8929 11.625C78.8829 11.695 78.8629 11.76 78.8329 11.82C78.7929 11.93 78.6879 12.09 78.5179 12.3C78.3479 12.5 78.1479 12.71 77.9179 12.93C77.6979 13.15 77.4879 13.355 77.2879 13.545C77.0879 13.725 76.9329 13.855 76.8229 13.935C76.7729 13.965 76.6979 14.025 76.5979 14.115C76.5079 14.205 76.4179 14.29 76.3279 14.37C76.2379 14.44 76.1629 14.475 76.1029 14.475V14.445C76.5229 14.035 76.9329 13.625 77.3329 13.215C77.7429 12.795 78.1129 12.335 78.4429 11.835C78.4929 11.755 78.5579 11.655 78.6379 11.535C78.7179 11.415 78.7579 11.31 78.7579 11.22C78.7579 11.2 78.7529 11.18 78.7429 11.16C78.7429 11.13 78.7429 11.105 78.7429 11.085C78.5529 11.105 78.4029 11.18 78.2929 11.31C78.1929 11.44 78.0729 11.545 77.9329 11.625L77.7979 11.7C77.7879 11.71 77.7579 11.75 77.7079 11.82C77.6579 11.89 77.6179 11.94 77.5879 11.97C77.5479 12.01 77.4979 12.05 77.4379 12.09C77.3879 12.13 77.3579 12.18 77.3479 12.24C77.2779 12.27 77.2179 12.32 77.1679 12.39C77.1279 12.45 77.0879 12.515 77.0479 12.585C76.9079 12.645 76.7779 12.78 76.6579 12.99C76.5479 13.2 76.4479 13.37 76.3579 13.5C76.3379 13.53 76.3079 13.565 76.2679 13.605C76.2279 13.645 76.2079 13.69 76.2079 13.74C76.1679 13.76 76.0979 13.845 75.9979 13.995C75.9079 14.145 75.8529 14.245 75.8329 14.295L75.8179 14.31C75.8179 14.33 75.8029 14.365 75.7729 14.415C75.7529 14.465 75.7379 14.5 75.7279 14.52C75.7179 14.53 75.6829 14.585 75.6229 14.685C75.5729 14.775 75.5179 14.885 75.4579 15.015C75.3979 15.145 75.3429 15.26 75.2929 15.36C75.2529 15.45 75.2329 15.5 75.2329 15.51C75.1729 15.59 75.0979 15.735 75.0079 15.945C74.9279 16.145 74.8679 16.3 74.8279 16.41L74.7979 16.44C74.7879 16.54 74.7529 16.645 74.6929 16.755C74.6329 16.865 74.6029 16.975 74.6029 17.085V17.115H74.6179C74.6479 17.115 74.6779 17.085 74.7079 17.025C74.7479 16.955 74.7729 16.915 74.7829 16.905L74.9329 16.725C74.9529 16.705 74.9679 16.685 74.9779 16.665C74.9879 16.635 75.0029 16.61 75.0229 16.59C75.0529 16.54 75.0879 16.495 75.1279 16.455C75.1679 16.415 75.2079 16.375 75.2479 16.335C75.2679 16.315 75.3029 16.265 75.3529 16.185C75.4129 16.105 75.4729 16.03 75.5329 15.96C75.5929 15.88 75.6229 15.835 75.6229 15.825C75.6329 15.815 75.6379 15.795 75.6379 15.765C75.6379 15.705 75.6129 15.64 75.5629 15.57C75.5129 15.5 75.4529 15.46 75.3829 15.45V15.435C75.4329 15.425 75.4729 15.415 75.5029 15.405C75.5429 15.395 75.5829 15.39 75.6229 15.39C75.6929 15.39 75.7579 15.395 75.8179 15.405C75.8779 15.415 75.9429 15.42 76.0129 15.42C76.0429 15.37 76.0779 15.33 76.1179 15.3C76.1679 15.26 76.2129 15.22 76.2529 15.18C76.3729 15.07 76.5129 14.955 76.6729 14.835C76.8329 14.715 76.9979 14.655 77.1679 14.655C77.2979 14.655 77.4029 14.695 77.4829 14.775C77.5729 14.845 77.6179 14.945 77.6179 15.075C77.6179 15.235 77.5179 15.39 77.3179 15.54C77.1279 15.69 76.9629 15.79 76.8229 15.84C76.6529 15.91 76.4679 15.945 76.2679 15.945C76.2379 15.945 76.2179 15.965 76.2079 16.005C76.1979 16.045 76.1929 16.075 76.1929 16.095C76.1929 16.195 76.2179 16.325 76.2679 16.485C76.3279 16.645 76.3729 16.78 76.4029 16.89C76.4129 16.92 76.4179 16.95 76.4179 16.98C76.4179 17.01 76.4229 17.04 76.4329 17.07C76.4829 17.24 76.5779 17.495 76.7179 17.835C76.8679 18.165 77.0429 18.525 77.2429 18.915C77.4429 19.315 77.6579 19.69 77.8879 20.04C78.1279 20.4 78.3629 20.695 78.5929 20.925C78.8229 21.155 79.0379 21.27 79.2379 21.27C79.4079 21.27 79.5429 21.195 79.6429 21.045C79.7229 20.955 79.7929 20.795 79.8529 20.565C79.9129 20.345 79.9579 20.115 79.9879 19.875C80.0179 19.635 80.0279 19.46 80.0179 19.35H80.0329V19.365H80.0629C80.0729 19.405 80.0779 19.445 80.0779 19.485C80.0879 19.525 80.0929 19.565 80.0929 19.605C80.0929 19.705 80.0879 19.805 80.0779 19.905C80.0779 20.005 80.0779 20.105 80.0779 20.205C80.0779 20.325 80.0729 20.445 80.0629 20.565C80.0529 20.695 80.0229 20.82 79.9729 20.94C79.9129 21.1 79.7879 21.215 79.5979 21.285C79.4079 21.365 79.2379 21.405 79.0879 21.405ZM76.2079 15.735V15.72L76.2379 15.705C76.3279 15.685 76.4579 15.63 76.6279 15.54C76.7979 15.44 76.9479 15.33 77.0779 15.21C77.2179 15.08 77.2879 14.97 77.2879 14.88C77.2879 14.86 77.2729 14.85 77.2429 14.85C77.2129 14.85 77.1929 14.85 77.1829 14.85C77.1429 14.87 77.0629 14.915 76.9429 14.985C76.8329 15.045 76.7279 15.115 76.6279 15.195C76.5379 15.275 76.4879 15.34 76.4779 15.39C76.4279 15.42 76.3579 15.465 76.2679 15.525C76.1879 15.575 76.1479 15.64 76.1479 15.72C76.1779 15.72 76.1979 15.725 76.2079 15.735Z" fill="black"/>
<path d="M62.385 26V22.5H63.905C64.135 22.5 64.3333 22.5417 64.5 22.625C64.67 22.7083 64.8017 22.8267 64.895 22.98C64.9883 23.13 65.035 23.3067 65.035 23.51C65.035 23.7133 64.9883 23.8917 64.895 24.045C64.8017 24.195 64.67 24.3133 64.5 24.4C64.33 24.4833 64.1317 24.525 63.905 24.525H62.77V26H62.385ZM62.77 24.19H63.875C64.1117 24.19 64.3 24.13 64.44 24.01C64.58 23.8867 64.65 23.7217 64.65 23.515C64.65 23.3083 64.58 23.145 64.44 23.025C64.3 22.905 64.1117 22.845 63.875 22.845H62.77V24.19ZM67.2623 26.055C67.009 26.055 66.7723 26.01 66.5523 25.92C66.3356 25.8267 66.144 25.6983 65.9773 25.535C65.814 25.3683 65.6856 25.1767 65.5923 24.96C65.5023 24.74 65.4573 24.5033 65.4573 24.25C65.4573 23.9967 65.5023 23.7617 65.5923 23.545C65.6856 23.325 65.814 23.1333 65.9773 22.97C66.144 22.8033 66.3356 22.675 66.5523 22.585C66.7723 22.4917 67.009 22.445 67.2623 22.445C67.5123 22.445 67.7456 22.4917 67.9623 22.585C68.1823 22.675 68.374 22.8033 68.5373 22.97C68.704 23.1333 68.8323 23.325 68.9223 23.545C69.0156 23.7617 69.0623 23.9967 69.0623 24.25C69.0623 24.5033 69.0156 24.74 68.9223 24.96C68.8323 25.1767 68.704 25.3683 68.5373 25.535C68.374 25.6983 68.1823 25.8267 67.9623 25.92C67.7456 26.01 67.5123 26.055 67.2623 26.055ZM67.2623 25.7C67.4623 25.7 67.6473 25.6633 67.8173 25.59C67.9873 25.5167 68.1356 25.415 68.2623 25.285C68.3923 25.1517 68.4923 24.9967 68.5623 24.82C68.6356 24.6433 68.6723 24.4533 68.6723 24.25C68.6723 24.0433 68.6356 23.8533 68.5623 23.68C68.4923 23.5033 68.3923 23.35 68.2623 23.22C68.1356 23.0867 67.9873 22.9833 67.8173 22.91C67.6473 22.8367 67.4623 22.8 67.2623 22.8C67.0623 22.8 66.8756 22.8367 66.7023 22.91C66.5323 22.9833 66.3823 23.0867 66.2523 23.22C66.1256 23.35 66.0256 23.5033 65.9523 23.68C65.8823 23.8533 65.8473 24.0417 65.8473 24.245C65.8473 24.4517 65.8823 24.6433 65.9523 24.82C66.0256 24.9967 66.1256 25.1517 66.2523 25.285C66.3823 25.415 66.5323 25.5167 66.7023 25.59C66.8756 25.6633 67.0623 25.7 67.2623 25.7ZM69.6653 26V22.5H72.1703V22.84H70.0503V24.065H71.4353V24.4H70.0503V25.66H72.1903V26H69.6653ZM73.7113 26V22.845H72.4463V22.5H75.3613V22.845H74.0963V26H73.7113Z" fill="black"/>
</svg>
