<?xml version="1.0" encoding="utf-8"?><svg viewBox="0 0 44 46" xmlns="http://www.w3.org/2000/svg" xmlns:xlink="http://www.w3.org/1999/xlink"><style>:root>svg{display:none}:root>svg:target{display:block}</style><svg viewBox="0 0 18 11" id="chevron-icon" xmlns="http://www.w3.org/2000/svg"><path d="M8.43 10.33.22 1.322a.76.76 0 0 1 0-1.07.75.75 0 0 1 1.066 0L9 8.715 16.714.252a.75.75 0 0 1 1.066 0 .76.76 0 0 1 0 1.07L9.57 10.33a.741.741 0 0 1-.57.215.748.748 0 0 1-.57-.216Z"/></svg><svg viewBox="0 0 14 13" id="icon-arrow" xmlns="http://www.w3.org/2000/svg"><path d="M8.121.323a1 1 0 0 0 0 1.414l3.292 3.293L1 5.037a1 1 0 1 0 0 2l10.414-.007-3.293 3.293a1 1 0 1 0 1.414 1.414l3.586-3.585a3 3 0 0 0 0-4.243L9.535.323a1 1 0 0 0-1.414 0Z"/></svg><svg viewBox="0 0 44 44" id="icon-facebook" xmlns="http://www.w3.org/2000/svg"><g clip-path="url(#ca)"><path d="M38.844 0H5.156A5.162 5.162 0 0 0 0 5.156v33.688A5.162 5.162 0 0 0 5.156 44h33.688A5.162 5.162 0 0 0 44 38.844V5.156A5.162 5.162 0 0 0 38.844 0Zm1.718 38.844a1.72 1.72 0 0 1-1.718 1.718h-9.797V26.556h5.31l.877-5.328h-6.187V17.53c0-1.458 1.12-2.578 2.578-2.578h3.523V9.625h-3.523c-4.376 0-7.904 3.545-7.904 7.921v3.68h-5.159v5.329h5.159v14.008H5.156a1.72 1.72 0 0 1-1.718-1.72V5.157a1.72 1.72 0 0 1 1.718-1.718h33.688a1.72 1.72 0 0 1 1.718 1.718v33.688Z"/></g><defs><clipPath id="ca"><path d="M0 0h44v44H0z"/></clipPath></defs></svg><svg viewBox="0 0 44 44" id="icon-instagram" xmlns="http://www.w3.org/2000/svg"><g clip-path="url(#da)"><path d="M31.219 0H12.78C5.734 0 0 5.734 0 12.781V31.22C0 38.266 5.734 44 12.781 44H31.22C38.266 44 44 38.266 44 31.219V12.78C44 5.734 38.266 0 31.219 0Zm9.343 31.219c0 5.152-4.191 9.343-9.343 9.343H12.78c-5.152 0-9.344-4.191-9.344-9.343V12.78c0-5.152 4.192-9.344 9.344-9.344H31.22c5.152 0 9.343 4.192 9.343 9.344V31.22Z"/><path d="M22 10.14c-6.54 0-11.86 5.32-11.86 11.86 0 6.54 5.32 11.86 11.86 11.86 6.54 0 11.86-5.32 11.86-11.86 0-6.54-5.32-11.86-11.86-11.86Zm0 20.282c-4.644 0-8.422-3.778-8.422-8.422s3.778-8.422 8.422-8.422 8.422 3.778 8.422 8.422-3.778 8.422-8.422 8.422ZM34.031 11.688a1.719 1.719 0 1 0 0-3.438 1.719 1.719 0 0 0 0 3.438Z"/></g><defs><clipPath id="da"><path d="M0 0h44v44H0z"/></clipPath></defs></svg><svg viewBox="0 0 11 19" id="icon-left" xmlns="http://www.w3.org/2000/svg"><path d="M8.197 18.079.45 10.333a1.548 1.548 0 0 1 0-2.184L8.197.403a1.548 1.548 0 0 1 2.184 2.184L3.735 9.233l6.646 6.662c.601.604.601 1.58 0 2.184a1.548 1.548 0 0 1-2.184 0Z"/></svg><svg viewBox="0 0 11 19" id="icon-right" xmlns="http://www.w3.org/2000/svg"><path d="m2.803 18.079 7.746-7.746a1.548 1.548 0 0 0 0-2.184L2.803.403A1.548 1.548 0 0 0 .62 2.587l6.646 6.646-6.646 6.662a1.548 1.548 0 0 0 0 2.184c.604.601 1.58.601 2.184 0Z"/></svg><svg viewBox="0 0 44 46" id="icon-telegram" xmlns="http://www.w3.org/2000/svg"><g clip-path="url(#ga)"><path d="M43.32 4.492c-.537-.675-1.342-1.047-2.266-1.047-.503 0-1.035.109-1.583.323L2.227 18.381C.25 19.156-.016 20.32.001 20.944c.017.625.347 1.77 2.363 2.43l.036.011 7.726 2.272 4.178 12.28c.57 1.674 1.848 2.714 3.337 2.714.94 0 1.863-.405 2.671-1.17l4.779-4.522 6.93 5.736.003.002.066.055.018.014c.77.615 1.612.939 2.433.94 1.606 0 2.883-1.222 3.256-3.111l6.102-30.97c.245-1.243.04-2.356-.578-3.133ZM12.71 25.226 27.615 17.4l-9.28 10.135c-.152.166-.26.37-.313.59l-1.79 7.451-3.522-10.35Zm5.855 12.306a2.43 2.43 0 0 1-.185.159l1.66-6.912 3.02 2.5-4.494 4.253ZM41.373 7.1l-6.103 30.97c-.059.296-.246.986-.729.986-.238 0-.538-.133-.844-.376l-7.854-6.5a.013.013 0 0 0-.004-.002l-4.673-3.868 13.421-14.657c.43-.47.47-1.188.093-1.704a1.267 1.267 0 0 0-1.618-.384l-22.074 11.59-7.83-2.302L40.39 6.244c.315-.124.534-.15.663-.15.078 0 .219.01.27.076.07.086.157.379.049.929Z"/></g><defs><clipPath id="ga"><path d="M0 0h44v45.222H0z"/></clipPath></defs></svg></svg>